<svg width="1584" height="396" viewBox="0 0 1584 396" fill="none" xmlns="http://www.w3.org/2000/svg">
<rect width="1584" height="396" fill="#F5F5F5"/>
<g id="Awesome banner" clip-path="url(#clip0_0_1)">
<rect width="1584" height="396" fill="url(#paint0_linear_0_1)"/>
<ellipse id="Ellipse 2" cx="323" cy="64" rx="285" ry="288" fill="url(#paint1_linear_0_1)" fill-opacity="0.1"/>
<g id="copyright">
<path d="M75.95 334.52L72.30 334.52L72.30 311.16L77.20 311.16L83.70 330.04Q83.60 329.02 83.50 327.62Q83.41 326.23 83.33 324.79Q83.25 323.35 83.25 322.23L83.25 311.16L86.90 311.16L86.90 334.52L82 334.52L75.57 315.64Q75.63 316.57 75.73 317.88Q75.82 319.19 75.89 320.57Q75.95 321.94 75.95 323.10L75.95 334.52M98.80 334.84Q96.46 334.84 94.67 333.96Q92.88 333.08 91.89 331.53Q90.90 329.98 90.90 327.93Q90.90 325.78 92.13 324.18Q93.36 322.58 95.34 322.17L95.34 322.10Q93.65 321.75 92.61 320.38Q91.57 319 91.57 317.11Q91.57 315.26 92.48 313.85Q93.39 312.44 95.02 311.64Q96.66 310.84 98.80 310.84Q100.94 310.84 102.59 311.64Q104.24 312.44 105.15 313.85Q106.06 315.26 106.06 317.11Q106.06 319 105.01 320.38Q103.95 321.75 102.26 322.10L102.26 322.17Q104.24 322.58 105.47 324.18Q106.70 325.78 106.70 327.93Q106.70 329.98 105.71 331.53Q104.72 333.08 102.93 333.96Q101.14 334.84 98.80 334.84M98.80 320.73Q100.30 320.73 101.23 319.82Q102.16 318.90 102.16 317.46Q102.16 315.99 101.23 315.08Q100.30 314.17 98.80 314.17Q97.30 314.17 96.37 315.08Q95.44 315.99 95.44 317.46Q95.44 318.90 96.37 319.82Q97.30 320.73 98.80 320.73M98.80 331.45Q100.56 331.45 101.68 330.42Q102.80 329.40 102.80 327.74Q102.80 326.04 101.68 325Q100.56 323.96 98.80 323.96Q97.04 323.96 95.92 325Q94.80 326.04 94.80 327.74Q94.80 329.40 95.92 330.42Q97.04 331.45 98.80 331.45M114.35 334.52L110.70 334.52L110.70 311.16L115.60 311.16L122.10 330.04Q122 329.02 121.90 327.62Q121.81 326.23 121.73 324.79Q121.65 323.35 121.65 322.23L121.65 311.16L125.30 311.16L125.30 334.52L120.40 334.52L113.97 315.64Q114.03 316.57 114.13 317.88Q114.22 319.19 114.29 320.57Q114.35 321.94 114.35 323.10" fill="white" fill-opacity="0.9"/>
<path d="M161.48 325.24L151.24 325.24L151.24 322.68L161.48 322.68" fill="white" fill-opacity="0.9"/>
<path d="M195.02 334.84Q191.82 334.84 189.96 333.05Q188.11 331.26 188.11 328.12L188.11 317.56Q188.11 314.42 189.96 312.63Q191.82 310.84 195.02 310.84Q198.15 310.84 200.01 312.65Q201.87 314.46 201.87 317.56L198.99 317.56Q198.99 315.58 197.95 314.50Q196.91 313.43 195.02 313.43Q193.13 313.43 192.06 314.50Q190.99 315.58 190.99 317.56L190.99 328.12Q190.99 330.10 192.06 331.18Q193.13 332.25 195.02 332.25Q196.91 332.25 197.95 331.18Q198.99 330.10 198.99 328.12L201.87 328.12Q201.87 331.22 200.01 333.03Q198.15 334.84 195.02 334.84" fill="white" fill-opacity="0.9"/>
<path d="M213.96 334.84Q210.83 334.84 209 333.02Q207.18 331.19 207.18 327.80L207.18 317.88Q207.18 314.49 209 312.66Q210.83 310.84 213.96 310.84Q217.10 310.84 218.92 312.66Q220.75 314.49 220.75 317.85L220.75 327.80Q220.75 331.19 218.92 333.02Q217.10 334.84 213.96 334.84M213.96 332.25Q215.85 332.25 216.86 331.18Q217.87 330.10 217.87 328.12L217.87 317.56Q217.87 315.58 216.86 314.50Q215.85 313.43 213.96 313.43Q212.11 313.43 211.08 314.50Q210.06 315.58 210.06 317.56L210.06 328.12Q210.06 330.10 211.08 331.18Q212.11 332.25 213.96 332.25" fill="white" fill-opacity="0.9"/>
<path d="M228.65 334.52L225.87 334.52L225.87 311.16L230.12 311.16L233.10 321.27L236.20 311.16L240.46 311.16L240.46 334.52L237.67 334.52L237.67 323.48Q237.67 321.91 237.72 319.88Q237.77 317.85 237.87 315.77Q237.96 313.69 238.09 312.02L234.31 324.09L231.82 324.09L228.20 312.31Q228.46 314.68 228.55 317.50Q228.65 320.31 228.65 323.48" fill="white" fill-opacity="0.9"/>
<path d="M247.85 334.52L245.07 334.52L245.07 311.16L249.32 311.16L252.30 321.27L255.40 311.16L259.66 311.16L259.66 334.52L256.87 334.52L256.87 323.48Q256.87 321.91 256.92 319.88Q256.97 317.85 257.07 315.77Q257.16 313.69 257.29 312.02L253.51 324.09L251.02 324.09L247.40 312.31Q247.66 314.68 247.75 317.50Q247.85 320.31 247.85 323.48" fill="white" fill-opacity="0.9"/>
<path d="M271.56 334.84Q268.30 334.84 266.57 333.03Q264.84 331.22 264.84 328.12L264.84 311.16L267.72 311.16L267.72 328.12Q267.72 330.04 268.67 331.16Q269.61 332.28 271.56 332.28Q273.48 332.28 274.44 331.16Q275.40 330.04 275.40 328.12L275.40 311.16L278.28 311.16L278.28 328.12Q278.28 331.26 276.57 333.05Q274.86 334.84 271.56 334.84" fill="white" fill-opacity="0.9"/>
<path d="M286.83 334.52L284.04 334.52L284.04 311.16L287.88 311.16L295.02 331.16Q294.95 330.36 294.87 329.19Q294.79 328.02 294.75 326.73Q294.70 325.43 294.70 324.28L294.70 311.16L297.48 311.16L297.48 334.52L293.64 334.52L286.54 314.52Q286.60 315.29 286.67 316.46Q286.73 317.62 286.78 318.92Q286.83 320.22 286.83 321.40" fill="white" fill-opacity="0.9"/>
<path d="M316.20 334.52L303.72 334.52L303.72 331.90L308.49 331.90L308.49 313.78L303.72 313.78L303.72 311.16L316.20 311.16L316.20 313.78L311.43 313.78L311.43 331.90L316.20 331.90" fill="white" fill-opacity="0.9"/>
<path d="M330.60 334.52L327.72 334.52L327.72 313.78L321.32 313.78L321.32 311.16L337 311.16L337 313.78L330.60 313.78" fill="white" fill-opacity="0.9"/>
<path d="M349.80 334.52L346.92 334.52L346.92 325.78L339.88 311.16L342.95 311.16L347.50 320.76Q347.88 321.56 348.11 322.12Q348.33 322.68 348.39 322.94Q348.46 322.68 348.70 322.12Q348.94 321.56 349.32 320.76L353.87 311.16L356.84 311.16L349.80 325.78" fill="white" fill-opacity="0.9"/>
<path d="M382.83 334.52L380.04 334.52L380.04 311.16L383.88 311.16L391.02 331.16Q390.95 330.36 390.87 329.19Q390.79 328.02 390.75 326.73Q390.70 325.43 390.70 324.28L390.70 311.16L393.48 311.16L393.48 334.52L389.64 334.52L382.54 314.52Q382.60 315.29 382.67 316.46Q382.73 317.62 382.78 318.92Q382.83 320.22 382.83 321.40" fill="white" fill-opacity="0.9"/>
<path d="M405.96 334.84Q402.83 334.84 401 333.02Q399.18 331.19 399.18 327.80L399.18 317.88Q399.18 314.49 401 312.66Q402.83 310.84 405.96 310.84Q409.10 310.84 410.92 312.66Q412.75 314.49 412.75 317.85L412.75 327.80Q412.75 331.19 410.92 333.02Q409.10 334.84 405.96 334.84M405.96 332.25Q407.85 332.25 408.86 331.18Q409.87 330.10 409.87 328.12L409.87 317.56Q409.87 315.58 408.86 314.50Q407.85 313.43 405.96 313.43Q404.11 313.43 403.08 314.50Q402.06 315.58 402.06 317.56L402.06 328.12Q402.06 330.10 403.08 331.18Q404.11 332.25 405.96 332.25" fill="white" fill-opacity="0.9"/>
<path d="M424.55 334.52L418.51 334.52L418.51 311.16L424.55 311.16Q426.83 311.16 428.47 312.02Q430.12 312.89 431.03 314.46Q431.95 316.02 431.95 318.17L431.95 327.48Q431.95 329.62 431.03 331.21Q430.12 332.79 428.47 333.66Q426.83 334.52 424.55 334.52M421.39 313.72L421.39 331.96L424.55 331.96Q426.67 331.96 427.87 330.78Q429.07 329.59 429.07 327.48L429.07 318.17Q429.07 316.09 427.87 314.90Q426.67 313.72 424.55 313.72" fill="white" fill-opacity="0.9"/>
<path d="M451.40 334.52L437.96 334.52L437.96 311.16L451.40 311.16L451.40 313.78L440.81 313.78L440.81 321.02L450.28 321.02L450.28 323.58L440.81 323.58L440.81 331.90L451.40 331.90" fill="white" fill-opacity="0.9"/>
<path d="M463.69 334.84Q460.30 334.84 458.28 333.05Q456.27 331.26 456.27 328.12L459.15 328.12Q459.15 330.07 460.39 331.18Q461.64 332.28 463.69 332.28Q465.67 332.28 466.86 331.13Q468.04 329.98 468.04 328.12Q468.04 326.71 467.29 325.67Q466.54 324.63 465.13 324.25L461.58 323.26Q459.37 322.62 458.11 320.97Q456.84 319.32 456.84 317.08Q456.84 315.22 457.67 313.82Q458.51 312.41 460.01 311.62Q461.51 310.84 463.47 310.84Q465.45 310.84 466.97 311.62Q468.49 312.41 469.35 313.80Q470.22 315.19 470.22 317.02L467.34 317.02Q467.34 315.42 466.25 314.41Q465.16 313.40 463.47 313.40Q461.77 313.40 460.71 314.41Q459.66 315.42 459.66 317.02Q459.66 318.30 460.35 319.21Q461.03 320.12 462.28 320.47L465.93 321.50Q468.27 322.14 469.56 323.91Q470.86 325.69 470.86 328.12Q470.86 331.19 468.91 333.02Q466.95 334.84 463.69 334.84" fill="white" fill-opacity="0.9"/>
</g>
<path d="M76.74 197.64L72.21 197.64L72.21 180.12L76.74 180.12Q78.45 180.12 79.68 180.77Q80.92 181.42 81.60 182.59Q82.29 183.77 82.29 185.38L82.29 192.36Q82.29 193.97 81.60 195.16Q80.92 196.34 79.68 196.99Q78.45 197.64 76.74 197.64M74.37 182.04L74.37 195.72L76.74 195.72Q78.33 195.72 79.23 194.83Q80.13 193.94 80.13 192.36L80.13 185.38Q80.13 183.82 79.23 182.93Q78.33 182.04 76.74 182.04" fill="white" fill-opacity="0.7"/>
<path d="M97.72 197.64L86.44 197.64L86.44 195.67L91.12 195.67L91.12 186.41L86.92 186.41L86.92 184.44L93.28 184.44L93.28 195.67L97.72 195.67L97.72 197.64M91.96 182.06Q91.17 182.06 90.71 181.66Q90.26 181.25 90.26 180.55Q90.26 179.83 90.71 179.41Q91.17 178.99 91.96 178.99Q92.75 178.99 93.21 179.41Q93.66 179.83 93.66 180.55Q93.66 181.25 93.21 181.66Q92.75 182.06 91.96 182.06" fill="white" fill-opacity="0.7"/>
<path d="M106.36 201.96L102.66 201.96L102.66 199.99L106.38 199.99Q107.51 199.99 108.16 199.36Q108.81 198.72 108.81 197.64L108.81 196.44L108.86 194.28L108.78 194.28Q108.59 195.46 107.66 196.09Q106.72 196.73 105.30 196.73Q103.26 196.73 102.09 195.43Q100.91 194.14 100.91 191.88L100.91 189.10Q100.91 186.84 102.09 185.52Q103.26 184.20 105.30 184.20Q106.72 184.20 107.66 184.87Q108.59 185.54 108.78 186.72L108.83 186.72L108.83 184.44L110.97 184.44L110.97 197.64Q110.97 199.63 109.73 200.80Q108.50 201.96 106.36 201.96M105.95 194.93Q107.30 194.93 108.06 194.09Q108.83 193.25 108.83 191.76L108.83 189.24Q108.83 187.75 108.06 186.91Q107.30 186.07 105.95 186.07Q104.58 186.07 103.83 186.86Q103.07 187.66 103.07 189L103.07 192Q103.07 193.34 103.83 194.14Q104.58 194.93 105.95 194.93" fill="white" fill-opacity="0.7"/>
<path d="M126.52 197.64L115.24 197.64L115.24 195.67L119.92 195.67L119.92 186.41L115.72 186.41L115.72 184.44L122.08 184.44L122.08 195.67L126.52 195.67L126.52 197.64M120.76 182.06Q119.97 182.06 119.51 181.66Q119.06 181.25 119.06 180.55Q119.06 179.83 119.51 179.41Q119.97 178.99 120.76 178.99Q121.55 178.99 122.01 179.41Q122.46 179.83 122.46 180.55Q122.46 181.25 122.01 181.66Q121.55 182.06 120.76 182.06" fill="white" fill-opacity="0.7"/>
<path d="M140.80 197.64L130.72 197.64L130.72 180.12L132.88 180.12L132.88 195.67L140.80 195.67" fill="white" fill-opacity="0.7"/>
<path d="M149.20 197.83Q146.82 197.83 145.42 196.44Q144.02 195.05 144.02 192.55L144.02 189.53Q144.02 187.01 145.41 185.63Q146.80 184.25 149.20 184.25Q151.60 184.25 152.99 185.63Q154.38 187.01 154.38 189.53L154.38 192.55Q154.38 195.05 152.98 196.44Q151.58 197.83 149.20 197.83M149.20 195.91Q150.62 195.91 151.42 195.12Q152.22 194.33 152.22 192.79L152.22 189.29Q152.22 187.75 151.42 186.96Q150.62 186.17 149.20 186.17Q147.81 186.17 146.99 186.96Q146.18 187.75 146.18 189.29L146.18 192.79Q146.18 194.33 146.99 195.12Q147.81 195.91 149.20 195.91" fill="white" fill-opacity="0.7"/>
<path d="M163.79 197.88Q161.39 197.88 159.95 196.54Q158.51 195.19 158.51 192.84L158.51 189.24Q158.51 186.89 159.95 185.54Q161.39 184.20 163.79 184.20Q166.07 184.20 167.48 185.42Q168.88 186.65 168.95 188.76L166.79 188.76Q166.72 187.49 165.93 186.80Q165.14 186.12 163.79 186.12Q162.38 186.12 161.52 186.92Q160.67 187.73 160.67 189.22L160.67 192.84Q160.67 194.33 161.52 195.14Q162.38 195.96 163.79 195.96Q165.14 195.96 165.93 195.26Q166.72 194.57 166.79 193.32L168.95 193.32Q168.88 195.43 167.48 196.66Q166.07 197.88 163.79 197.88" fill="white" fill-opacity="0.7"/>
<path d="M175.29 197.64L173.13 197.64L173.13 180.12L175.29 180.12L175.29 189.89L177.81 189.89L181.50 184.44L183.98 184.44L179.73 190.73L184.22 197.64L181.70 197.64L177.86 191.76L175.29 191.76" fill="white" fill-opacity="0.7"/>
<path d="M192.40 197.88Q190.07 197.88 188.64 196.48Q187.22 195.07 187.22 192.60L187.22 189.48Q187.22 187.01 188.64 185.60Q190.07 184.20 192.40 184.20Q193.96 184.20 195.12 184.82Q196.29 185.45 196.94 186.58Q197.58 187.70 197.58 189.24L197.58 191.59L189.33 191.59L189.33 192.84Q189.33 194.30 190.17 195.16Q191.01 196.01 192.40 196.01Q193.60 196.01 194.38 195.54Q195.16 195.07 195.33 194.28L197.49 194.28Q197.27 195.94 195.88 196.91Q194.49 197.88 192.40 197.88M189.33 189.24L189.33 189.91L195.47 189.91L195.47 189.24Q195.47 187.68 194.67 186.83Q193.86 185.98 192.40 185.98Q190.94 185.98 190.13 186.83Q189.33 187.68 189.33 189.24" fill="white" fill-opacity="0.7"/>
<path d="M204.45 197.64L202.29 197.64L202.29 184.44L204.45 184.44L204.45 186.96L204.50 186.96Q204.66 185.69 205.58 184.94Q206.49 184.20 208.02 184.20Q210.09 184.20 211.20 185.44Q212.32 186.67 212.32 188.95L212.32 190.08L210.16 190.08L210.16 188.95Q210.16 186.07 207.35 186.07Q205.94 186.07 205.19 186.89Q204.45 187.70 204.45 189.24" fill="white" fill-opacity="0.7"/>
<path d="M241.72 197.64L230.44 197.64L230.44 195.67L235.12 195.67L235.12 186.41L230.92 186.41L230.92 184.44L237.28 184.44L237.28 195.67L241.72 195.67L241.72 197.64M235.96 182.06Q235.17 182.06 234.71 181.66Q234.26 181.25 234.26 180.55Q234.26 179.83 234.71 179.41Q235.17 178.99 235.96 178.99Q236.75 178.99 237.21 179.41Q237.66 179.83 237.66 180.55Q237.66 181.25 237.21 181.66Q236.75 182.06 235.96 182.06" fill="white" fill-opacity="0.7"/>
<path d="M247.17 197.64L245.01 197.64L245.01 184.44L247.17 184.44L247.17 186.96L247.19 186.96Q247.36 185.64 248.27 184.92Q249.18 184.20 250.70 184.20Q252.69 184.20 253.86 185.42Q255.04 186.65 255.04 188.76L255.04 197.64L252.88 197.64L252.88 189.14Q252.88 187.63 252.12 186.83Q251.37 186.02 250.07 186.02Q248.73 186.02 247.95 186.86Q247.17 187.70 247.17 189.24" fill="white" fill-opacity="0.7"/>
<path d="M269.56 197.64L265.72 197.64Q264.09 197.64 263.10 196.69Q262.12 195.74 262.12 194.16L262.12 186.41L258.33 186.41L258.33 184.44L262.12 184.44L262.12 180.72L264.28 180.72L264.28 184.44L269.68 184.44L269.68 186.41L264.28 186.41L264.28 194.16Q264.28 194.83 264.68 195.25Q265.07 195.67 265.72 195.67L269.56 195.67" fill="white" fill-opacity="0.7"/>
<path d="M278.80 197.88Q276.47 197.88 275.04 196.48Q273.62 195.07 273.62 192.60L273.62 189.48Q273.62 187.01 275.04 185.60Q276.47 184.20 278.80 184.20Q280.36 184.20 281.52 184.82Q282.69 185.45 283.34 186.58Q283.98 187.70 283.98 189.24L283.98 191.59L275.73 191.59L275.73 192.84Q275.73 194.30 276.57 195.16Q277.41 196.01 278.80 196.01Q280 196.01 280.78 195.54Q281.56 195.07 281.73 194.28L283.89 194.28Q283.67 195.94 282.28 196.91Q280.89 197.88 278.80 197.88M275.73 189.24L275.73 189.91L281.87 189.91L281.87 189.24Q281.87 187.68 281.07 186.83Q280.26 185.98 278.80 185.98Q277.34 185.98 276.53 186.83Q275.73 187.68 275.73 189.24" fill="white" fill-opacity="0.7"/>
<path d="M293.56 201.96L289.86 201.96L289.86 199.99L293.58 199.99Q294.71 199.99 295.36 199.36Q296.01 198.72 296.01 197.64L296.01 196.44L296.06 194.28L295.98 194.28Q295.79 195.46 294.86 196.09Q293.92 196.73 292.50 196.73Q290.46 196.73 289.29 195.43Q288.11 194.14 288.11 191.88L288.11 189.10Q288.11 186.84 289.29 185.52Q290.46 184.20 292.50 184.20Q293.92 184.20 294.86 184.87Q295.79 185.54 295.98 186.72L296.03 186.72L296.03 184.44L298.17 184.44L298.17 197.64Q298.17 199.63 296.93 200.80Q295.70 201.96 293.56 201.96M293.15 194.93Q294.50 194.93 295.26 194.09Q296.03 193.25 296.03 191.76L296.03 189.24Q296.03 187.75 295.26 186.91Q294.50 186.07 293.15 186.07Q291.78 186.07 291.03 186.86Q290.27 187.66 290.27 189L290.27 192Q290.27 193.34 291.03 194.14Q291.78 194.93 293.15 194.93" fill="white" fill-opacity="0.7"/>
<path d="M305.25 197.64L303.09 197.64L303.09 184.44L305.25 184.44L305.25 186.96L305.30 186.96Q305.46 185.69 306.38 184.94Q307.29 184.20 308.82 184.20Q310.89 184.20 312 185.44Q313.12 186.67 313.12 188.95L313.12 190.08L310.96 190.08L310.96 188.95Q310.96 186.07 308.15 186.07Q306.74 186.07 305.99 186.89Q305.25 187.70 305.25 189.24" fill="white" fill-opacity="0.7"/>
<path d="M320.85 197.88Q318.81 197.88 317.61 196.74Q316.41 195.60 316.41 193.75Q316.41 192.53 316.96 191.62Q317.51 190.70 318.50 190.19Q319.48 189.67 320.75 189.67L324.83 189.67L324.83 188.64Q324.83 186.07 322.02 186.07Q320.78 186.07 320.01 186.53Q319.24 186.98 319.19 187.80L317.03 187.80Q317.15 186.24 318.48 185.22Q319.82 184.20 322.02 184.20Q324.42 184.20 325.71 185.35Q326.99 186.50 326.99 188.57L326.99 197.64L324.86 197.64L324.86 195.24L324.81 195.24Q324.62 196.46 323.58 197.17Q322.55 197.88 320.85 197.88M321.38 196.06Q322.96 196.06 323.90 195.29Q324.83 194.52 324.83 193.20L324.83 191.35L320.99 191.35Q319.94 191.35 319.28 191.99Q318.62 192.62 318.62 193.68Q318.62 194.78 319.35 195.42Q320.08 196.06 321.38 196.06" fill="white" fill-opacity="0.7"/>
<path d="M341.56 197.64L337.72 197.64Q336.09 197.64 335.10 196.69Q334.12 195.74 334.12 194.16L334.12 186.41L330.33 186.41L330.33 184.44L334.12 184.44L334.12 180.72L336.28 180.72L336.28 184.44L341.68 184.44L341.68 186.41L336.28 186.41L336.28 194.16Q336.28 194.83 336.68 195.25Q337.07 195.67 337.72 195.67L341.56 195.67" fill="white" fill-opacity="0.7"/>
<path d="M350.80 197.88Q348.47 197.88 347.04 196.48Q345.62 195.07 345.62 192.60L345.62 189.48Q345.62 187.01 347.04 185.60Q348.47 184.20 350.80 184.20Q352.36 184.20 353.52 184.82Q354.69 185.45 355.34 186.58Q355.98 187.70 355.98 189.24L355.98 191.59L347.73 191.59L347.73 192.84Q347.73 194.30 348.57 195.16Q349.41 196.01 350.80 196.01Q352 196.01 352.78 195.54Q353.56 195.07 353.73 194.28L355.89 194.28Q355.67 195.94 354.28 196.91Q352.89 197.88 350.80 197.88M347.73 189.24L347.73 189.91L353.87 189.91L353.87 189.24Q353.87 187.68 353.07 186.83Q352.26 185.98 350.80 185.98Q349.34 185.98 348.53 186.83Q347.73 187.68 347.73 189.24" fill="white" fill-opacity="0.7"/>
<path d="M365.73 197.83L364.67 197.83Q362.46 197.83 361.25 196.84Q360.04 195.84 360.04 194.02L362.20 194.02Q362.20 194.93 362.85 195.44Q363.50 195.96 364.67 195.96L365.73 195.96Q366.93 195.96 367.59 195.43Q368.25 194.90 368.25 193.94Q368.25 192.24 366.69 192.02L363.04 191.50Q361.70 191.30 360.95 190.38Q360.21 189.46 360.21 187.94Q360.21 186.22 361.40 185.23Q362.58 184.25 364.67 184.25L365.73 184.25Q367.65 184.25 368.86 185.20Q370.07 186.14 370.17 187.68L367.98 187.68Q367.94 186.98 367.32 186.53Q366.71 186.07 365.73 186.07L364.67 186.07Q363.57 186.07 362.94 186.58Q362.32 187.08 362.32 187.94Q362.32 189.34 363.59 189.53L367 190.01Q370.36 190.49 370.36 193.94Q370.36 195.79 369.15 196.81Q367.94 197.83 365.73 197.83" fill="white" fill-opacity="0.7"/>
<path d="M393.54 197.64L389.01 197.64L389.01 180.12L393.54 180.12Q395.25 180.12 396.48 180.77Q397.72 181.42 398.40 182.59Q399.09 183.77 399.09 185.38L399.09 192.36Q399.09 193.97 398.40 195.16Q397.72 196.34 396.48 196.99Q395.25 197.64 393.54 197.64M391.17 182.04L391.17 195.72L393.54 195.72Q395.13 195.72 396.03 194.83Q396.93 193.94 396.93 192.36L396.93 185.38Q396.93 183.82 396.03 182.93Q395.13 182.04 393.54 182.04" fill="white" fill-opacity="0.7"/>
<path d="M408.40 197.88Q406.07 197.88 404.64 196.48Q403.22 195.07 403.22 192.60L403.22 189.48Q403.22 187.01 404.64 185.60Q406.07 184.20 408.40 184.20Q409.96 184.20 411.12 184.82Q412.29 185.45 412.94 186.58Q413.58 187.70 413.58 189.24L413.58 191.59L405.33 191.59L405.33 192.84Q405.33 194.30 406.17 195.16Q407.01 196.01 408.40 196.01Q409.60 196.01 410.38 195.54Q411.16 195.07 411.33 194.28L413.49 194.28Q413.27 195.94 411.88 196.91Q410.49 197.88 408.40 197.88M405.33 189.24L405.33 189.91L411.47 189.91L411.47 189.24Q411.47 187.68 410.67 186.83Q409.86 185.98 408.40 185.98Q406.94 185.98 406.13 186.83Q405.33 187.68 405.33 189.24" fill="white" fill-opacity="0.7"/>
<path d="M419.97 201.96L417.81 201.96L417.81 184.44L419.97 184.44L419.97 186.96L419.99 186.96Q420.16 185.66 421.12 184.93Q422.08 184.20 423.57 184.20Q425.56 184.20 426.74 185.51Q427.91 186.82 427.91 189.10L427.91 192.96Q427.91 195.24 426.74 196.56Q425.56 197.88 423.57 197.88Q422.08 197.88 421.12 197.14Q420.16 196.39 419.99 195.12L419.92 195.12L419.97 198.12L419.97 201.96M422.85 196.01Q424.22 196.01 424.98 195.29Q425.75 194.57 425.75 192.96L425.75 189.12Q425.75 187.49 424.98 186.78Q424.22 186.07 422.85 186.07Q421.53 186.07 420.75 186.91Q419.97 187.75 419.97 189.24L419.97 192.84Q419.97 194.33 420.75 195.17Q421.53 196.01 422.85 196.01" fill="white" fill-opacity="0.7"/>
<path d="M436.05 197.88Q434.01 197.88 432.81 196.74Q431.61 195.60 431.61 193.75Q431.61 192.53 432.16 191.62Q432.71 190.70 433.70 190.19Q434.68 189.67 435.95 189.67L440.03 189.67L440.03 188.64Q440.03 186.07 437.22 186.07Q435.98 186.07 435.21 186.53Q434.44 186.98 434.39 187.80L432.23 187.80Q432.35 186.24 433.68 185.22Q435.02 184.20 437.22 184.20Q439.62 184.20 440.91 185.35Q442.19 186.50 442.19 188.57L442.19 197.64L440.06 197.64L440.06 195.24L440.01 195.24Q439.82 196.46 438.78 197.17Q437.75 197.88 436.05 197.88M436.58 196.06Q438.16 196.06 439.10 195.29Q440.03 194.52 440.03 193.20L440.03 191.35L436.19 191.35Q435.14 191.35 434.48 191.99Q433.82 192.62 433.82 193.68Q433.82 194.78 434.55 195.42Q435.28 196.06 436.58 196.06" fill="white" fill-opacity="0.7"/>
<path d="M449.25 197.64L447.09 197.64L447.09 184.44L449.25 184.44L449.25 186.96L449.30 186.96Q449.46 185.69 450.38 184.94Q451.29 184.20 452.82 184.20Q454.89 184.20 456 185.44Q457.12 186.67 457.12 188.95L457.12 190.08L454.96 190.08L454.96 188.95Q454.96 186.07 452.15 186.07Q450.74 186.07 449.99 186.89Q449.25 187.70 449.25 189.24" fill="white" fill-opacity="0.7"/>
<path d="M471.16 197.64L467.32 197.64Q465.69 197.64 464.70 196.69Q463.72 195.74 463.72 194.16L463.72 186.41L459.93 186.41L459.93 184.44L463.72 184.44L463.72 180.72L465.88 180.72L465.88 184.44L471.28 184.44L471.28 186.41L465.88 186.41L465.88 194.16Q465.88 194.83 466.28 195.25Q466.67 195.67 467.32 195.67L471.16 195.67" fill="white" fill-opacity="0.7"/>
<path d="M476.66 197.64L474.64 197.64L474.64 184.44L476.51 184.44L476.51 186.19L476.56 186.19Q476.68 185.30 477.27 184.75Q477.86 184.20 478.77 184.20Q479.63 184.20 480.23 184.70Q480.83 185.21 481.10 186.07L481.12 186.07Q481.29 185.21 481.88 184.70Q482.46 184.20 483.38 184.20Q484.65 184.20 485.40 185.15Q486.16 186.10 486.16 187.61L486.16 197.64L484.14 197.64L484.14 187.58Q484.14 186.79 483.76 186.32Q483.38 185.86 482.70 185.86Q482.06 185.86 481.67 186.31Q481.29 186.77 481.29 187.56L481.29 197.64L479.51 197.64L479.51 187.58Q479.51 186.79 479.13 186.32Q478.74 185.86 478.10 185.86Q477.42 185.86 477.04 186.31Q476.66 186.77 476.66 187.56" fill="white" fill-opacity="0.7"/>
<path d="M494.80 197.88Q492.47 197.88 491.04 196.48Q489.62 195.07 489.62 192.60L489.62 189.48Q489.62 187.01 491.04 185.60Q492.47 184.20 494.80 184.20Q496.36 184.20 497.52 184.82Q498.69 185.45 499.34 186.58Q499.98 187.70 499.98 189.24L499.98 191.59L491.73 191.59L491.73 192.84Q491.73 194.30 492.57 195.16Q493.41 196.01 494.80 196.01Q496 196.01 496.78 195.54Q497.56 195.07 497.73 194.28L499.89 194.28Q499.67 195.94 498.28 196.91Q496.89 197.88 494.80 197.88M491.73 189.24L491.73 189.91L497.87 189.91L497.87 189.24Q497.87 187.68 497.07 186.83Q496.26 185.98 494.80 185.98Q493.34 185.98 492.53 186.83Q491.73 187.68 491.73 189.24" fill="white" fill-opacity="0.7"/>
<path d="M506.37 197.64L504.21 197.64L504.21 184.44L506.37 184.44L506.37 186.96L506.39 186.96Q506.56 185.64 507.47 184.92Q508.38 184.20 509.90 184.20Q511.89 184.20 513.06 185.42Q514.24 186.65 514.24 188.76L514.24 197.64L512.08 197.64L512.08 189.14Q512.08 187.63 511.32 186.83Q510.57 186.02 509.27 186.02Q507.93 186.02 507.15 186.86Q506.37 187.70 506.37 189.24" fill="white" fill-opacity="0.7"/>
<path d="M528.76 197.64L524.92 197.64Q523.29 197.64 522.30 196.69Q521.32 195.74 521.32 194.16L521.32 186.41L517.53 186.41L517.53 184.44L521.32 184.44L521.32 180.72L523.48 180.72L523.48 184.44L528.88 184.44L528.88 186.41L523.48 186.41L523.48 194.16Q523.48 194.83 523.88 195.25Q524.27 195.67 524.92 195.67L528.76 195.67" fill="white" fill-opacity="0.7"/>
<path d="M541.84 190.68L534.16 190.68L534.16 188.76L541.84 188.76" fill="white" fill-opacity="0.7"/>
<path d="M558.52 197.64L547.24 197.64L547.24 195.67L551.92 195.67L551.92 186.41L547.72 186.41L547.72 184.44L554.08 184.44L554.08 195.67L558.52 195.67L558.52 197.64M552.76 182.06Q551.97 182.06 551.51 181.66Q551.06 181.25 551.06 180.55Q551.06 179.83 551.51 179.41Q551.97 178.99 552.76 178.99Q553.55 178.99 554.01 179.41Q554.46 179.83 554.46 180.55Q554.46 181.25 554.01 181.66Q553.55 182.06 552.76 182.06" fill="white" fill-opacity="0.7"/>
<path d="M567.33 197.83L566.27 197.83Q564.06 197.83 562.85 196.84Q561.64 195.84 561.64 194.02L563.80 194.02Q563.80 194.93 564.45 195.44Q565.10 195.96 566.27 195.96L567.33 195.96Q568.53 195.96 569.19 195.43Q569.85 194.90 569.85 193.94Q569.85 192.24 568.29 192.02L564.64 191.50Q563.30 191.30 562.55 190.38Q561.81 189.46 561.81 187.94Q561.81 186.22 563 185.23Q564.18 184.25 566.27 184.25L567.33 184.25Q569.25 184.25 570.46 185.20Q571.67 186.14 571.77 187.68L569.58 187.68Q569.54 186.98 568.92 186.53Q568.31 186.07 567.33 186.07L566.27 186.07Q565.17 186.07 564.54 186.58Q563.92 187.08 563.92 187.94Q563.92 189.34 565.19 189.53L568.60 190.01Q571.96 190.49 571.96 193.94Q571.96 195.79 570.75 196.81Q569.54 197.83 567.33 197.83" fill="white" fill-opacity="0.7"/>
<path d="M581.73 197.83L580.67 197.83Q578.46 197.83 577.25 196.84Q576.04 195.84 576.04 194.02L578.20 194.02Q578.20 194.93 578.85 195.44Q579.50 195.96 580.67 195.96L581.73 195.96Q582.93 195.96 583.59 195.43Q584.25 194.90 584.25 193.94Q584.25 192.24 582.69 192.02L579.04 191.50Q577.70 191.30 576.95 190.38Q576.21 189.46 576.21 187.94Q576.21 186.22 577.40 185.23Q578.58 184.25 580.67 184.25L581.73 184.25Q583.65 184.25 584.86 185.20Q586.07 186.14 586.17 187.68L583.98 187.68Q583.94 186.98 583.32 186.53Q582.71 186.07 581.73 186.07L580.67 186.07Q579.57 186.07 578.94 186.58Q578.32 187.08 578.32 187.94Q578.32 189.34 579.59 189.53L583 190.01Q586.36 190.49 586.36 193.94Q586.36 195.79 585.15 196.81Q583.94 197.83 581.73 197.83" fill="white" fill-opacity="0.7"/>
<path d="M595.58 197.88Q593.30 197.88 591.93 196.52Q590.56 195.17 590.56 192.84L590.56 184.44L592.72 184.44L592.72 192.84Q592.72 194.28 593.49 195.13Q594.26 195.98 595.58 195.98Q596.92 195.98 597.70 195.13Q598.48 194.28 598.48 192.84L598.48 184.44L600.64 184.44L600.64 192.84Q600.64 195.17 599.25 196.52Q597.86 197.88 595.58 197.88" fill="white" fill-opacity="0.7"/>
<path d="M610 197.88Q607.67 197.88 606.24 196.48Q604.82 195.07 604.82 192.60L604.82 189.48Q604.82 187.01 606.24 185.60Q607.67 184.20 610 184.20Q611.56 184.20 612.72 184.82Q613.89 185.45 614.54 186.58Q615.18 187.70 615.18 189.24L615.18 191.59L606.93 191.59L606.93 192.84Q606.93 194.30 607.77 195.16Q608.61 196.01 610 196.01Q611.20 196.01 611.98 195.54Q612.76 195.07 612.93 194.28L615.09 194.28Q614.87 195.94 613.48 196.91Q612.09 197.88 610 197.88M606.93 189.24L606.93 189.91L613.07 189.91L613.07 189.24Q613.07 187.68 612.27 186.83Q611.46 185.98 610 185.98Q608.54 185.98 607.73 186.83Q606.93 187.68 606.93 189.24" fill="white" fill-opacity="0.7"/>
<path d="M623.63 197.88Q621.66 197.88 620.48 196.56Q619.29 195.24 619.29 192.98L619.29 189.12Q619.29 186.84 620.46 185.52Q621.64 184.20 623.63 184.20Q625.12 184.20 626.09 184.94Q627.06 185.69 627.26 186.96L627.28 186.96L627.23 183.96L627.23 180.12L629.39 180.12L629.39 197.64L627.23 197.64L627.23 195.12L627.21 195.12Q627.04 196.42 626.08 197.15Q625.12 197.88 623.63 197.88M624.35 196.01Q625.70 196.01 626.46 195.17Q627.23 194.33 627.23 192.84L627.23 189.24Q627.23 187.75 626.46 186.91Q625.70 186.07 624.35 186.07Q622.98 186.07 622.22 186.78Q621.45 187.49 621.45 189.12L621.45 192.96Q621.45 194.57 622.22 195.29Q622.98 196.01 624.35 196.01" fill="white" fill-opacity="0.7"/>
<path d="M653.97 197.88Q652.48 197.88 651.52 197.15Q650.56 196.42 650.39 195.12L650.37 195.12L650.37 197.64L648.21 197.64L648.21 180.12L650.37 180.12L650.37 183.96L650.32 186.96L650.34 186.96Q650.54 185.69 651.51 184.94Q652.48 184.20 653.97 184.20Q655.96 184.20 657.14 185.52Q658.31 186.84 658.31 189.12L658.31 192.98Q658.31 195.24 657.14 196.56Q655.96 197.88 653.97 197.88M653.25 196.01Q654.62 196.01 655.38 195.29Q656.15 194.57 656.15 192.96L656.15 189.12Q656.15 187.49 655.38 186.78Q654.62 186.07 653.25 186.07Q651.93 186.07 651.15 186.91Q650.37 187.75 650.37 189.24L650.37 192.84Q650.37 194.33 651.15 195.17Q651.93 196.01 653.25 196.01" fill="white" fill-opacity="0.7"/>
<path d="M673.72 197.64L662.44 197.64L662.44 195.67L667.12 195.67L667.12 186.41L662.92 186.41L662.92 184.44L669.28 184.44L669.28 195.67L673.72 195.67L673.72 197.64M667.96 182.06Q667.17 182.06 666.71 181.66Q666.26 181.25 666.26 180.55Q666.26 179.83 666.71 179.41Q667.17 178.99 667.96 178.99Q668.75 178.99 669.21 179.41Q669.66 179.83 669.66 180.55Q669.66 181.25 669.21 181.66Q668.75 182.06 667.96 182.06" fill="white" fill-opacity="0.7"/>
<path d="M679.65 197.64L677.49 197.64L677.49 184.44L679.65 184.44L679.65 186.96L679.70 186.96Q679.86 185.69 680.78 184.94Q681.69 184.20 683.22 184.20Q685.29 184.20 686.40 185.44Q687.52 186.67 687.52 188.95L687.52 190.08L685.36 190.08L685.36 188.95Q685.36 186.07 682.55 186.07Q681.14 186.07 680.39 186.89Q679.65 187.70 679.65 189.24" fill="white" fill-opacity="0.7"/>
<path d="M701.56 197.64L697.72 197.64Q696.09 197.64 695.10 196.69Q694.12 195.74 694.12 194.16L694.12 186.41L690.33 186.41L690.33 184.44L694.12 184.44L694.12 180.72L696.28 180.72L696.28 184.44L701.68 184.44L701.68 186.41L696.28 186.41L696.28 194.16Q696.28 194.83 696.68 195.25Q697.07 195.67 697.72 195.67L701.56 195.67" fill="white" fill-opacity="0.7"/>
<path d="M707.97 197.64L705.81 197.64L705.81 180.12L707.97 180.12L707.97 186.96L707.99 186.96Q708.16 185.64 709.07 184.92Q709.98 184.20 711.50 184.20Q713.49 184.20 714.66 185.42Q715.84 186.65 715.84 188.76L715.84 197.64L713.68 197.64L713.68 189.12Q713.68 187.63 712.92 186.83Q712.17 186.02 710.87 186.02Q709.53 186.02 708.75 186.86Q707.97 187.70 707.97 189.24" fill="white" fill-opacity="0.7"/>
<path d="M725.27 201.48L723.04 201.48L724.36 194.14L726.95 194.14" fill="white" fill-opacity="0.7"/>
<path d="M754.53 197.83L753.47 197.83Q751.26 197.83 750.05 196.84Q748.84 195.84 748.84 194.02L751 194.02Q751 194.93 751.65 195.44Q752.30 195.96 753.47 195.96L754.53 195.96Q755.73 195.96 756.39 195.43Q757.05 194.90 757.05 193.94Q757.05 192.24 755.49 192.02L751.84 191.50Q750.50 191.30 749.75 190.38Q749.01 189.46 749.01 187.94Q749.01 186.22 750.20 185.23Q751.38 184.25 753.47 184.25L754.53 184.25Q756.45 184.25 757.66 185.20Q758.87 186.14 758.97 187.68L756.78 187.68Q756.74 186.98 756.12 186.53Q755.51 186.07 754.53 186.07L753.47 186.07Q752.37 186.07 751.74 186.58Q751.12 187.08 751.12 187.94Q751.12 189.34 752.39 189.53L755.80 190.01Q759.16 190.49 759.16 193.94Q759.16 195.79 757.95 196.81Q756.74 197.83 754.53 197.83" fill="white" fill-opacity="0.7"/>
<path d="M773.56 197.64L769.72 197.64Q768.09 197.64 767.10 196.69Q766.12 195.74 766.12 194.16L766.12 186.41L762.33 186.41L762.33 184.44L766.12 184.44L766.12 180.72L768.28 180.72L768.28 184.44L773.68 184.44L773.68 186.41L768.28 186.41L768.28 194.16Q768.28 194.83 768.68 195.25Q769.07 195.67 769.72 195.67L773.56 195.67" fill="white" fill-opacity="0.7"/>
<path d="M788.92 197.64L777.64 197.64L777.64 195.67L782.32 195.67L782.32 186.41L778.12 186.41L778.12 184.44L784.48 184.44L784.48 195.67L788.92 195.67L788.92 197.64M783.16 182.06Q782.37 182.06 781.91 181.66Q781.46 181.25 781.46 180.55Q781.46 179.83 781.91 179.41Q782.37 178.99 783.16 178.99Q783.95 178.99 784.41 179.41Q784.86 179.83 784.86 180.55Q784.86 181.25 784.41 181.66Q783.95 182.06 783.16 182.06" fill="white" fill-opacity="0.7"/>
<path d="M803.20 197.64L799.12 197.64Q797.37 197.64 796.32 196.62Q795.28 195.60 795.28 193.92L795.28 182.09L790.72 182.09L790.72 180.12L797.44 180.12L797.44 193.92Q797.44 194.74 797.90 195.20Q798.35 195.67 799.12 195.67L803.20 195.67" fill="white" fill-opacity="0.7"/>
<path d="M817.60 197.64L813.52 197.64Q811.77 197.64 810.72 196.62Q809.68 195.60 809.68 193.92L809.68 182.09L805.12 182.09L805.12 180.12L811.84 180.12L811.84 193.92Q811.84 194.74 812.30 195.20Q812.75 195.67 813.52 195.67L817.60 195.67" fill="white" fill-opacity="0.7"/>
<path d="M829.84 190.68L822.16 190.68L822.16 188.76L829.84 188.76" fill="white" fill-opacity="0.7"/>
<path d="M841.17 197.88Q839.68 197.88 838.72 197.15Q837.76 196.42 837.59 195.12L837.57 195.12L837.57 197.64L835.41 197.64L835.41 180.12L837.57 180.12L837.57 183.96L837.52 186.96L837.54 186.96Q837.74 185.69 838.71 184.94Q839.68 184.20 841.17 184.20Q843.16 184.20 844.34 185.52Q845.51 186.84 845.51 189.12L845.51 192.98Q845.51 195.24 844.34 196.56Q843.16 197.88 841.17 197.88M840.45 196.01Q841.82 196.01 842.58 195.29Q843.35 194.57 843.35 192.96L843.35 189.12Q843.35 187.49 842.58 186.78Q841.82 186.07 840.45 186.07Q839.13 186.07 838.35 186.91Q837.57 187.75 837.57 189.24L837.57 192.84Q837.57 194.33 838.35 195.17Q839.13 196.01 840.45 196.01" fill="white" fill-opacity="0.7"/>
<path d="M860.92 197.64L849.64 197.64L849.64 195.67L854.32 195.67L854.32 186.41L850.12 186.41L850.12 184.44L856.48 184.44L856.48 195.67L860.92 195.67L860.92 197.64M855.16 182.06Q854.37 182.06 853.91 181.66Q853.46 181.25 853.46 180.55Q853.46 179.83 853.91 179.41Q854.37 178.99 855.16 178.99Q855.95 178.99 856.41 179.41Q856.86 179.83 856.86 180.55Q856.86 181.25 856.41 181.66Q855.95 182.06 855.16 182.06" fill="white" fill-opacity="0.7"/>
<path d="M866.85 197.64L864.69 197.64L864.69 184.44L866.85 184.44L866.85 186.96L866.90 186.96Q867.06 185.69 867.98 184.94Q868.89 184.20 870.42 184.20Q872.49 184.20 873.60 185.44Q874.72 186.67 874.72 188.95L874.72 190.08L872.56 190.08L872.56 188.95Q872.56 186.07 869.75 186.07Q868.34 186.07 867.59 186.89Q866.85 187.70 866.85 189.24" fill="white" fill-opacity="0.7"/>
<path d="M888.76 197.64L884.92 197.64Q883.29 197.64 882.30 196.69Q881.32 195.74 881.32 194.16L881.32 186.41L877.53 186.41L877.53 184.44L881.32 184.44L881.32 180.72L883.48 180.72L883.48 184.44L888.88 184.44L888.88 186.41L883.48 186.41L883.48 194.16Q883.48 194.83 883.88 195.25Q884.27 195.67 884.92 195.67L888.76 195.67" fill="white" fill-opacity="0.7"/>
<path d="M895.17 197.64L893.01 197.64L893.01 180.12L895.17 180.12L895.17 186.96L895.19 186.96Q895.36 185.64 896.27 184.92Q897.18 184.20 898.70 184.20Q900.69 184.20 901.86 185.42Q903.04 186.65 903.04 188.76L903.04 197.64L900.88 197.64L900.88 189.12Q900.88 187.63 900.12 186.83Q899.37 186.02 898.07 186.02Q896.73 186.02 895.95 186.86Q895.17 187.70 895.17 189.24" fill="white" fill-opacity="0.7"/>
<path d="M912.47 201.48L910.24 201.48L911.56 194.14L914.15 194.14" fill="white" fill-opacity="0.7"/>
<path d="M940.43 197.88Q938.46 197.88 937.28 196.56Q936.09 195.24 936.09 192.98L936.09 189.12Q936.09 186.84 937.26 185.52Q938.44 184.20 940.43 184.20Q941.92 184.20 942.89 184.94Q943.86 185.69 944.06 186.96L944.08 186.96L944.03 183.96L944.03 180.12L946.19 180.12L946.19 197.64L944.03 197.64L944.03 195.12L944.01 195.12Q943.84 196.42 942.88 197.15Q941.92 197.88 940.43 197.88M941.15 196.01Q942.50 196.01 943.26 195.17Q944.03 194.33 944.03 192.84L944.03 189.24Q944.03 187.75 943.26 186.91Q942.50 186.07 941.15 186.07Q939.78 186.07 939.02 186.78Q938.25 187.49 938.25 189.12L938.25 192.96Q938.25 194.57 939.02 195.29Q939.78 196.01 941.15 196.01" fill="white" fill-opacity="0.7"/>
<path d="M955.60 197.88Q953.27 197.88 951.84 196.48Q950.42 195.07 950.42 192.60L950.42 189.48Q950.42 187.01 951.84 185.60Q953.27 184.20 955.60 184.20Q957.16 184.20 958.32 184.82Q959.49 185.45 960.14 186.58Q960.78 187.70 960.78 189.24L960.78 191.59L952.53 191.59L952.53 192.84Q952.53 194.30 953.37 195.16Q954.21 196.01 955.60 196.01Q956.80 196.01 957.58 195.54Q958.36 195.07 958.53 194.28L960.69 194.28Q960.47 195.94 959.08 196.91Q957.69 197.88 955.60 197.88M952.53 189.24L952.53 189.91L958.67 189.91L958.67 189.24Q958.67 187.68 957.87 186.83Q957.06 185.98 955.60 185.98Q954.14 185.98 953.33 186.83Q952.53 187.68 952.53 189.24" fill="white" fill-opacity="0.7"/>
<path d="M968.85 197.88Q966.81 197.88 965.61 196.74Q964.41 195.60 964.41 193.75Q964.41 192.53 964.96 191.62Q965.51 190.70 966.50 190.19Q967.48 189.67 968.75 189.67L972.83 189.67L972.83 188.64Q972.83 186.07 970.02 186.07Q968.78 186.07 968.01 186.53Q967.24 186.98 967.19 187.80L965.03 187.80Q965.15 186.24 966.48 185.22Q967.82 184.20 970.02 184.20Q972.42 184.20 973.71 185.35Q974.99 186.50 974.99 188.57L974.99 197.64L972.86 197.64L972.86 195.24L972.81 195.24Q972.62 196.46 971.58 197.17Q970.55 197.88 968.85 197.88M969.38 196.06Q970.96 196.06 971.90 195.29Q972.83 194.52 972.83 193.20L972.83 191.35L968.99 191.35Q967.94 191.35 967.28 191.99Q966.62 192.62 966.62 193.68Q966.62 194.78 967.35 195.42Q968.08 196.06 969.38 196.06" fill="white" fill-opacity="0.7"/>
<path d="M989.56 197.64L985.72 197.64Q984.09 197.64 983.10 196.69Q982.12 195.74 982.12 194.16L982.12 186.41L978.33 186.41L978.33 184.44L982.12 184.44L982.12 180.72L984.28 180.72L984.28 184.44L989.68 184.44L989.68 186.41L984.28 186.41L984.28 194.16Q984.28 194.83 984.68 195.25Q985.07 195.67 985.72 195.67L989.56 195.67" fill="white" fill-opacity="0.7"/>
<path d="M995.97 197.64L993.81 197.64L993.81 180.12L995.97 180.12L995.97 186.96L995.99 186.96Q996.16 185.64 997.07 184.92Q997.98 184.20 999.50 184.20Q1001.49 184.20 1002.66 185.42Q1003.84 186.65 1003.84 188.76L1003.84 197.64L1001.68 197.64L1001.68 189.12Q1001.68 187.63 1000.92 186.83Q1000.17 186.02 998.87 186.02Q997.53 186.02 996.75 186.86Q995.97 187.70 995.97 189.24" fill="white" fill-opacity="0.7"/>
<path d="M1013.27 201.48L1011.04 201.48L1012.36 194.14L1014.95 194.14" fill="white" fill-opacity="0.7"/>
<path d="M1040.85 197.88Q1038.81 197.88 1037.61 196.74Q1036.41 195.60 1036.41 193.75Q1036.41 192.53 1036.96 191.62Q1037.51 190.70 1038.50 190.19Q1039.48 189.67 1040.75 189.67L1044.83 189.67L1044.83 188.64Q1044.83 186.07 1042.02 186.07Q1040.78 186.07 1040.01 186.53Q1039.24 186.98 1039.19 187.80L1037.03 187.80Q1037.15 186.24 1038.48 185.22Q1039.82 184.20 1042.02 184.20Q1044.42 184.20 1045.71 185.35Q1046.99 186.50 1046.99 188.57L1046.99 197.64L1044.86 197.64L1044.86 195.24L1044.81 195.24Q1044.62 196.46 1043.58 197.17Q1042.55 197.88 1040.85 197.88M1041.38 196.06Q1042.96 196.06 1043.90 195.29Q1044.83 194.52 1044.83 193.20L1044.83 191.35L1040.99 191.35Q1039.94 191.35 1039.28 191.99Q1038.62 192.62 1038.62 193.68Q1038.62 194.78 1039.35 195.42Q1040.08 196.06 1041.38 196.06" fill="white" fill-opacity="0.7"/>
<path d="M1053.57 197.64L1051.41 197.64L1051.41 184.44L1053.57 184.44L1053.57 186.96L1053.59 186.96Q1053.76 185.64 1054.67 184.92Q1055.58 184.20 1057.10 184.20Q1059.09 184.20 1060.26 185.42Q1061.44 186.65 1061.44 188.76L1061.44 197.64L1059.28 197.64L1059.28 189.14Q1059.28 187.63 1058.52 186.83Q1057.77 186.02 1056.47 186.02Q1055.13 186.02 1054.35 186.86Q1053.57 187.70 1053.57 189.24" fill="white" fill-opacity="0.7"/>
<path d="M1070.03 197.88Q1068.06 197.88 1066.88 196.56Q1065.69 195.24 1065.69 192.98L1065.69 189.12Q1065.69 186.84 1066.86 185.52Q1068.04 184.20 1070.03 184.20Q1071.52 184.20 1072.49 184.94Q1073.46 185.69 1073.66 186.96L1073.68 186.96L1073.63 183.96L1073.63 180.12L1075.79 180.12L1075.79 197.64L1073.63 197.64L1073.63 195.12L1073.61 195.12Q1073.44 196.42 1072.48 197.15Q1071.52 197.88 1070.03 197.88M1070.75 196.01Q1072.10 196.01 1072.86 195.17Q1073.63 194.33 1073.63 192.84L1073.63 189.24Q1073.63 187.75 1072.86 186.91Q1072.10 186.07 1070.75 186.07Q1069.38 186.07 1068.62 186.78Q1067.85 187.49 1067.85 189.12L1067.85 192.96Q1067.85 194.57 1068.62 195.29Q1069.38 196.01 1070.75 196.01" fill="white" fill-opacity="0.7"/>
<path d="M73.46 229.64L71.44 229.64L71.44 216.44L73.31 216.44L73.31 218.19L73.36 218.19Q73.48 217.30 74.07 216.75Q74.66 216.20 75.57 216.20Q76.43 216.20 77.03 216.70Q77.63 217.21 77.90 218.07L77.92 218.07Q78.09 217.21 78.68 216.70Q79.26 216.20 80.18 216.20Q81.45 216.20 82.20 217.15Q82.96 218.10 82.96 219.61L82.96 229.64L80.94 229.64L80.94 219.58Q80.94 218.79 80.56 218.32Q80.18 217.86 79.50 217.86Q78.86 217.86 78.47 218.31Q78.09 218.77 78.09 219.56L78.09 229.64L76.31 229.64L76.31 219.58Q76.31 218.79 75.93 218.32Q75.54 217.86 74.90 217.86Q74.22 217.86 73.84 218.31Q73.46 218.77 73.46 219.56" fill="white" fill-opacity="0.7"/>
<path d="M90.45 229.88Q88.41 229.88 87.21 228.74Q86.01 227.60 86.01 225.75Q86.01 224.53 86.56 223.62Q87.11 222.70 88.10 222.19Q89.08 221.67 90.35 221.67L94.43 221.67L94.43 220.64Q94.43 218.07 91.62 218.07Q90.38 218.07 89.61 218.53Q88.84 218.98 88.79 219.80L86.63 219.80Q86.75 218.24 88.08 217.22Q89.42 216.20 91.62 216.20Q94.02 216.20 95.31 217.35Q96.59 218.50 96.59 220.57L96.59 229.64L94.46 229.64L94.46 227.24L94.41 227.24Q94.22 228.46 93.18 229.17Q92.15 229.88 90.45 229.88M90.98 228.06Q92.56 228.06 93.50 227.29Q94.43 226.52 94.43 225.20L94.43 223.35L90.59 223.35Q89.54 223.35 88.88 223.99Q88.22 224.62 88.22 225.68Q88.22 226.78 88.95 227.42Q89.68 228.06 90.98 228.06" fill="white" fill-opacity="0.7"/>
<path d="M103.65 229.64L101.49 229.64L101.49 216.44L103.65 216.44L103.65 218.96L103.70 218.96Q103.86 217.69 104.78 216.94Q105.69 216.20 107.22 216.20Q109.29 216.20 110.40 217.44Q111.52 218.67 111.52 220.95L111.52 222.08L109.36 222.08L109.36 220.95Q109.36 218.07 106.55 218.07Q105.14 218.07 104.39 218.89Q103.65 219.70 103.65 221.24" fill="white" fill-opacity="0.7"/>
<path d="M118.05 229.64L115.89 229.64L115.89 216.44L118.05 216.44L118.05 218.96L118.10 218.96Q118.26 217.69 119.18 216.94Q120.09 216.20 121.62 216.20Q123.69 216.20 124.80 217.44Q125.92 218.67 125.92 220.95L125.92 222.08L123.76 222.08L123.76 220.95Q123.76 218.07 120.95 218.07Q119.54 218.07 118.79 218.89Q118.05 219.70 118.05 221.24" fill="white" fill-opacity="0.7"/>
<path d="M140.92 229.64L129.64 229.64L129.64 227.67L134.32 227.67L134.32 218.41L130.12 218.41L130.12 216.44L136.48 216.44L136.48 227.67L140.92 227.67L140.92 229.64M135.16 214.06Q134.37 214.06 133.91 213.66Q133.46 213.25 133.46 212.55Q133.46 211.83 133.91 211.41Q134.37 210.99 135.16 210.99Q135.95 210.99 136.41 211.41Q136.86 211.83 136.86 212.55Q136.86 213.25 136.41 213.66Q135.95 214.06 135.16 214.06" fill="white" fill-opacity="0.7"/>
<path d="M148.05 229.88Q146.01 229.88 144.81 228.74Q143.61 227.60 143.61 225.75Q143.61 224.53 144.16 223.62Q144.71 222.70 145.70 222.19Q146.68 221.67 147.95 221.67L152.03 221.67L152.03 220.64Q152.03 218.07 149.22 218.07Q147.98 218.07 147.21 218.53Q146.44 218.98 146.39 219.80L144.23 219.80Q144.35 218.24 145.68 217.22Q147.02 216.20 149.22 216.20Q151.62 216.20 152.91 217.35Q154.19 218.50 154.19 220.57L154.19 229.64L152.06 229.64L152.06 227.24L152.01 227.24Q151.82 228.46 150.78 229.17Q149.75 229.88 148.05 229.88M148.58 228.06Q150.16 228.06 151.10 227.29Q152.03 226.52 152.03 225.20L152.03 223.35L148.19 223.35Q147.14 223.35 146.48 223.99Q145.82 224.62 145.82 225.68Q145.82 226.78 146.55 227.42Q147.28 228.06 148.58 228.06" fill="white" fill-opacity="0.7"/>
<path d="M163.96 233.96L160.26 233.96L160.26 231.99L163.98 231.99Q165.11 231.99 165.76 231.36Q166.41 230.72 166.41 229.64L166.41 228.44L166.46 226.28L166.38 226.28Q166.19 227.46 165.26 228.09Q164.32 228.73 162.90 228.73Q160.86 228.73 159.69 227.43Q158.51 226.14 158.51 223.88L158.51 221.10Q158.51 218.84 159.69 217.52Q160.86 216.20 162.90 216.20Q164.32 216.20 165.26 216.87Q166.19 217.54 166.38 218.72L166.43 218.72L166.43 216.44L168.57 216.44L168.57 229.64Q168.57 231.63 167.33 232.80Q166.10 233.96 163.96 233.96M163.55 226.93Q164.90 226.93 165.66 226.09Q166.43 225.25 166.43 223.76L166.43 221.24Q166.43 219.75 165.66 218.91Q164.90 218.07 163.55 218.07Q162.18 218.07 161.43 218.86Q160.67 219.66 160.67 221L160.67 224Q160.67 225.34 161.43 226.14Q162.18 226.93 163.55 226.93" fill="white" fill-opacity="0.7"/>
<path d="MNaN 229.88Q175.67 229.88 174.24 228.48Q172.82 227.07 172.82 224.60L172.82 221.48Q172.82 219.01 174.24 217.60Q175.67 216.20 NaN 216.20Q179.56 216.20 180.72 216.82Q181.89 217.45 182.54 218.58Q183.18 219.70 183.18 221.24L183.18 223.59L174.93 223.59L174.93 224.84Q174.93 226.30 175.77 227.16Q176.61 228.01 NaN 228.01Q179.20 228.01 179.98 227.54Q180.76 227.07 180.93 226.28L183.09 226.28Q182.87 227.94 181.48 228.91Q180.09 229.88 NaN 229.88M174.93 221.24L174.93 221.91L181.07 221.91L181.07 221.24Q181.07 219.68 180.27 218.83Q179.46 217.98 NaN 217.98Q176.54 217.98 175.73 218.83Q174.93 219.68 174.93 221.24" fill="white" fill-opacity="0.7"/>
<path d="M206.99 229.88Q204.59 229.88 203.15 228.54Q201.71 227.19 201.71 224.84L201.71 221.24Q201.71 218.89 203.15 217.54Q204.59 216.20 206.99 216.20Q209.27 216.20 210.68 217.42Q212.08 218.65 212.15 220.76L209.99 220.76Q209.92 219.49 209.13 218.80Q208.34 218.12 206.99 218.12Q205.58 218.12 204.72 218.92Q203.87 219.73 203.87 221.22L203.87 224.84Q203.87 226.33 204.72 227.14Q205.58 227.96 206.99 227.96Q208.34 227.96 209.13 227.26Q209.92 226.57 209.99 225.32L212.15 225.32Q212.08 227.43 210.68 228.66Q209.27 229.88 206.99 229.88" fill="white" fill-opacity="0.7"/>
<path d="M221.20 229.88Q218.87 229.88 217.44 228.48Q216.02 227.07 216.02 224.60L216.02 221.48Q216.02 219.01 217.44 217.60Q218.87 216.20 221.20 216.20Q222.76 216.20 223.92 216.82Q225.09 217.45 225.74 218.58Q226.38 219.70 226.38 221.24L226.38 223.59L218.13 223.59L218.13 224.84Q218.13 226.30 218.97 227.16Q219.81 228.01 221.20 228.01Q222.40 228.01 223.18 227.54Q223.96 227.07 224.13 226.28L226.29 226.28Q226.07 227.94 224.68 228.91Q223.29 229.88 221.20 229.88M218.13 221.24L218.13 221.91L224.27 221.91L224.27 221.24Q224.27 219.68 223.47 218.83Q222.66 217.98 221.20 217.98Q219.74 217.98 218.93 218.83Q218.13 219.68 218.13 221.24" fill="white" fill-opacity="0.7"/>
<path d="M233.25 229.64L231.09 229.64L231.09 216.44L233.25 216.44L233.25 218.96L233.30 218.96Q233.46 217.69 234.38 216.94Q235.29 216.20 236.82 216.20Q238.89 216.20 240 217.44Q241.12 218.67 241.12 220.95L241.12 222.08L238.96 222.08L238.96 220.95Q238.96 218.07 236.15 218.07Q234.74 218.07 233.99 218.89Q233.25 219.70 233.25 221.24" fill="white" fill-opacity="0.7"/>
<path d="M255.16 229.64L251.32 229.64Q249.69 229.64 248.70 228.69Q247.72 227.74 247.72 226.16L247.72 218.41L243.93 218.41L243.93 216.44L247.72 216.44L247.72 212.72L249.88 212.72L249.88 216.44L255.28 216.44L255.28 218.41L249.88 218.41L249.88 226.16Q249.88 226.83 250.28 227.25Q250.67 227.67 251.32 227.67L255.16 227.67" fill="white" fill-opacity="0.7"/>
<path d="M270.52 229.64L259.24 229.64L259.24 227.67L263.92 227.67L263.92 218.41L259.72 218.41L259.72 216.44L266.08 216.44L266.08 227.67L270.52 227.67L270.52 229.64M264.76 214.06Q263.97 214.06 263.51 213.66Q263.06 213.25 263.06 212.55Q263.06 211.83 263.51 211.41Q263.97 210.99 264.76 210.99Q265.55 210.99 266.01 211.41Q266.46 211.83 266.46 212.55Q266.46 213.25 266.01 213.66Q265.55 214.06 264.76 214.06" fill="white" fill-opacity="0.7"/>
<path d="M278.92 229.64L276.76 229.64L276.76 220.21L272.92 220.21L272.92 218.24L276.76 218.24L276.76 215.48Q276.76 213.92 277.74 213.02Q278.73 212.12 280.46 212.12L284.32 212.12L284.32 214.09L280.46 214.09Q278.92 214.09 278.92 215.48L278.92 218.24L284.32 218.24L284.32 220.21L278.92 220.21" fill="white" fill-opacity="0.7"/>
<path d="M299.32 229.64L288.04 229.64L288.04 227.67L292.72 227.67L292.72 218.41L288.52 218.41L288.52 216.44L294.88 216.44L294.88 227.67L299.32 227.67L299.32 229.64M293.56 214.06Q292.77 214.06 292.31 213.66Q291.86 213.25 291.86 212.55Q291.86 211.83 292.31 211.41Q292.77 210.99 293.56 210.99Q294.35 210.99 294.81 211.41Q295.26 211.83 295.26 212.55Q295.26 213.25 294.81 213.66Q294.35 214.06 293.56 214.06" fill="white" fill-opacity="0.7"/>
<path d="M307.79 229.88Q305.39 229.88 303.95 228.54Q302.51 227.19 302.51 224.84L302.51 221.24Q302.51 218.89 303.95 217.54Q305.39 216.20 307.79 216.20Q310.07 216.20 311.48 217.42Q312.88 218.65 312.95 220.76L310.79 220.76Q310.72 219.49 309.93 218.80Q309.14 218.12 307.79 218.12Q306.38 218.12 305.52 218.92Q304.67 219.73 304.67 221.22L304.67 224.84Q304.67 226.33 305.52 227.14Q306.38 227.96 307.79 227.96Q309.14 227.96 309.93 227.26Q310.72 226.57 310.79 225.32L312.95 225.32Q312.88 227.43 311.48 228.66Q310.07 229.88 307.79 229.88" fill="white" fill-opacity="0.7"/>
<path d="M320.85 229.88Q318.81 229.88 317.61 228.74Q316.41 227.60 316.41 225.75Q316.41 224.53 316.96 223.62Q317.51 222.70 318.50 222.19Q319.48 221.67 320.75 221.67L324.83 221.67L324.83 220.64Q324.83 218.07 322.02 218.07Q320.78 218.07 320.01 218.53Q319.24 218.98 319.19 219.80L317.03 219.80Q317.15 218.24 318.48 217.22Q319.82 216.20 322.02 216.20Q324.42 216.20 325.71 217.35Q326.99 218.50 326.99 220.57L326.99 229.64L324.86 229.64L324.86 227.24L324.81 227.24Q324.62 228.46 323.58 229.17Q322.55 229.88 320.85 229.88M321.38 228.06Q322.96 228.06 323.90 227.29Q324.83 226.52 324.83 225.20L324.83 223.35L320.99 223.35Q319.94 223.35 319.28 223.99Q318.62 224.62 318.62 225.68Q318.62 226.78 319.35 227.42Q320.08 228.06 321.38 228.06" fill="white" fill-opacity="0.7"/>
<path d="M341.56 229.64L337.72 229.64Q336.09 229.64 335.10 228.69Q334.12 227.74 334.12 226.16L334.12 218.41L330.33 218.41L330.33 216.44L334.12 216.44L334.12 212.72L336.28 212.72L336.28 216.44L341.68 216.44L341.68 218.41L336.28 218.41L336.28 226.16Q336.28 226.83 336.68 227.25Q337.07 227.67 337.72 227.67L341.56 227.67" fill="white" fill-opacity="0.7"/>
<path d="M350.80 229.88Q348.47 229.88 347.04 228.48Q345.62 227.07 345.62 224.60L345.62 221.48Q345.62 219.01 347.04 217.60Q348.47 216.20 350.80 216.20Q352.36 216.20 353.52 216.82Q354.69 217.45 355.34 218.58Q355.98 219.70 355.98 221.24L355.98 223.59L347.73 223.59L347.73 224.84Q347.73 226.30 348.57 227.16Q349.41 228.01 350.80 228.01Q352 228.01 352.78 227.54Q353.56 227.07 353.73 226.28L355.89 226.28Q355.67 227.94 354.28 228.91Q352.89 229.88 350.80 229.88M347.73 221.24L347.73 221.91L353.87 221.91L353.87 221.24Q353.87 219.68 353.07 218.83Q352.26 217.98 350.80 217.98Q349.34 217.98 348.53 218.83Q347.73 219.68 347.73 221.24" fill="white" fill-opacity="0.7"/>
<path d="M365.73 229.83L364.67 229.83Q362.46 229.83 361.25 228.84Q360.04 227.84 360.04 226.02L362.20 226.02Q362.20 226.93 362.85 227.44Q363.50 227.96 364.67 227.96L365.73 227.96Q366.93 227.96 367.59 227.43Q368.25 226.90 368.25 225.94Q368.25 224.24 366.69 224.02L363.04 223.50Q361.70 223.30 360.95 222.38Q360.21 221.46 360.21 219.94Q360.21 218.22 361.40 217.23Q362.58 216.25 364.67 216.25L365.73 216.25Q367.65 216.25 368.86 217.20Q370.07 218.14 370.17 219.68L367.98 219.68Q367.94 218.98 367.32 218.53Q366.71 218.07 365.73 218.07L364.67 218.07Q363.57 218.07 362.94 218.58Q362.32 219.08 362.32 219.94Q362.32 221.34 363.59 221.53L367 222.01Q370.36 222.49 370.36 225.94Q370.36 227.79 369.15 228.81Q367.94 229.83 365.73 229.83" fill="white" fill-opacity="0.7"/>
<path d="M394.12 229.64L391.96 229.64L391.96 220.21L388.12 220.21L388.12 218.24L391.96 218.24L391.96 215.48Q391.96 213.92 392.94 213.02Q393.93 212.12 395.66 212.12L399.52 212.12L399.52 214.09L395.66 214.09Q394.12 214.09 394.12 215.48L394.12 218.24L399.52 218.24L399.52 220.21L394.12 220.21" fill="white" fill-opacity="0.7"/>
<path d="M406.05 229.64L403.89 229.64L403.89 216.44L406.05 216.44L406.05 218.96L406.10 218.96Q406.26 217.69 407.18 216.94Q408.09 216.20 409.62 216.20Q411.69 216.20 412.80 217.44Q413.92 218.67 413.92 220.95L413.92 222.08L411.76 222.08L411.76 220.95Q411.76 218.07 408.95 218.07Q407.54 218.07 406.79 218.89Q406.05 219.70 406.05 221.24" fill="white" fill-opacity="0.7"/>
<path d="M422.80 229.83Q420.42 229.83 419.02 228.44Q417.62 227.05 417.62 224.55L417.62 221.53Q417.62 219.01 419.01 217.63Q420.40 216.25 422.80 216.25Q425.20 216.25 426.59 217.63Q427.98 219.01 427.98 221.53L427.98 224.55Q427.98 227.05 426.58 228.44Q425.18 229.83 422.80 229.83M422.80 227.91Q424.22 227.91 425.02 227.12Q425.82 226.33 425.82 224.79L425.82 221.29Q425.82 219.75 425.02 218.96Q424.22 218.17 422.80 218.17Q421.41 218.17 420.59 218.96Q419.78 219.75 419.78 221.29L419.78 224.79Q419.78 226.33 420.59 227.12Q421.41 227.91 422.80 227.91" fill="white" fill-opacity="0.7"/>
<path d="M433.46 229.64L431.44 229.64L431.44 216.44L433.31 216.44L433.31 218.19L433.36 218.19Q433.48 217.30 434.07 216.75Q434.66 216.20 435.57 216.20Q436.43 216.20 437.03 216.70Q437.63 217.21 437.90 218.07L437.92 218.07Q438.09 217.21 438.68 216.70Q439.26 216.20 440.18 216.20Q441.45 216.20 442.20 217.15Q442.96 218.10 442.96 219.61L442.96 229.64L440.94 229.64L440.94 219.58Q440.94 218.79 440.56 218.32Q440.18 217.86 439.50 217.86Q438.86 217.86 438.47 218.31Q438.09 218.77 438.09 219.56L438.09 229.64L436.31 229.64L436.31 219.58Q436.31 218.79 435.93 218.32Q435.54 217.86 434.90 217.86Q434.22 217.86 433.84 218.31Q433.46 218.77 433.46 219.56" fill="white" fill-opacity="0.7"/>
<path d="M471.45 229.64L460.86 229.64L460.86 227.65L466.70 221.41Q467.97 220.06 468.50 219.01Q469.02 217.95 469.02 216.94Q469.02 215.50 468.20 214.65Q467.37 213.80 465.95 213.80Q464.49 213.80 463.64 214.68Q462.78 215.55 462.78 217.04L460.62 217.04Q460.70 214.66 462.14 213.27Q463.58 211.88 465.95 211.88Q468.38 211.88 469.80 213.25Q471.23 214.62 471.23 216.97Q471.23 218.22 470.55 219.61Q469.86 221 468.21 222.73L463.48 227.67L471.45 227.67" fill="white" fill-opacity="0.7"/>
<path d="M480.40 229.88Q477.98 229.88 476.55 228.48Q475.12 227.07 475.12 224.72L475.12 217.04Q475.12 214.69 476.55 213.28Q477.98 211.88 480.40 211.88Q482.82 211.88 484.25 213.28Q485.68 214.69 485.68 217.04L485.68 224.72Q485.68 226.28 485.03 227.44Q484.38 228.61 483.20 229.24Q482.01 229.88 480.40 229.88M480.40 228.03Q481.84 228.03 482.72 227.11Q483.59 226.18 483.59 224.72L483.59 217.04Q483.59 215.58 482.72 214.65Q481.84 213.73 480.40 213.73Q478.96 213.73 478.08 214.65Q477.21 215.58 477.21 217.04L477.21 224.72Q477.21 226.18 478.08 227.11Q478.96 228.03 480.40 228.03M480.40 222.20Q479.75 222.20 479.36 221.84Q478.96 221.48 478.96 220.81Q478.96 220.16 479.36 219.81Q479.75 219.46 480.40 219.46Q481.05 219.46 481.44 219.81Q481.84 220.16 481.84 220.81Q481.84 221.48 481.44 221.84Q481.05 222.20 480.40 222.20" fill="white" fill-opacity="0.7"/>
<path d="M500.56 229.64L489.76 229.64L489.76 227.67L494.51 227.67L494.51 213.99L489.76 217.54L489.76 215.07L493.72 212.12L496.67 212.12L496.67 227.67L500.56 227.67" fill="white" fill-opacity="0.7"/>
<path d="M513.76 229.64L511.60 229.64L511.60 225.80L503.68 225.80L503.68 222.42L510.06 212.12L512.51 212.12L505.84 222.90L505.84 223.83L511.60 223.83L511.60 219.56L513.76 219.56" fill="white" fill-opacity="0.7"/>
<path d="M538 229.83Q535.62 229.83 534.22 228.44Q532.82 227.05 532.82 224.55L532.82 221.53Q532.82 219.01 534.21 217.63Q535.60 216.25 538 216.25Q540.40 216.25 541.79 217.63Q543.18 219.01 543.18 221.53L543.18 224.55Q543.18 227.05 541.78 228.44Q540.38 229.83 538 229.83M538 227.91Q539.42 227.91 540.22 227.12Q541.02 226.33 541.02 224.79L541.02 221.29Q541.02 219.75 540.22 218.96Q539.42 218.17 538 218.17Q536.61 218.17 535.79 218.96Q534.98 219.75 534.98 221.29L534.98 224.79Q534.98 226.33 535.79 227.12Q536.61 227.91 538 227.91" fill="white" fill-opacity="0.7"/>
<path d="M549.57 229.64L547.41 229.64L547.41 216.44L549.57 216.44L549.57 218.96L549.59 218.96Q549.76 217.64 550.67 216.92Q551.58 216.20 553.10 216.20Q555.09 216.20 556.26 217.42Q557.44 218.65 557.44 220.76L557.44 229.64L555.28 229.64L555.28 221.14Q555.28 219.63 554.52 218.83Q553.77 218.02 552.47 218.02Q551.13 218.02 550.35 218.86Q549.57 219.70 549.57 221.24" fill="white" fill-opacity="0.7"/>
<path d="M564.88 229.64L562.50 229.64L560.34 216.44L562.22 216.44L563.56 225.75Q563.63 226.28 563.70 226.92Q563.78 227.55 563.80 227.96Q563.85 227.55 563.91 226.92Q563.97 226.28 564.06 225.75L565.72 216.44L567.88 216.44L569.54 225.75Q569.63 226.28 569.72 226.92Q569.80 227.55 569.82 227.96Q569.87 227.55 569.94 226.92Q570.02 226.28 570.09 225.75L571.48 216.44L573.26 216.44L571 229.64L568.62 229.64L567.11 220.52Q567.02 219.85 566.93 219.09Q566.85 218.34 566.80 217.93Q566.78 218.34 566.68 219.09Q566.58 219.85 566.46 220.52" fill="white" fill-opacity="0.7"/>
<path d="M580.05 229.88Q578.01 229.88 576.81 228.74Q575.61 227.60 575.61 225.75Q575.61 224.53 576.16 223.62Q576.71 222.70 577.70 222.19Q578.68 221.67 579.95 221.67L584.03 221.67L584.03 220.64Q584.03 218.07 581.22 218.07Q579.98 218.07 579.21 218.53Q578.44 218.98 578.39 219.80L576.23 219.80Q576.35 218.24 577.68 217.22Q579.02 216.20 581.22 216.20Q583.62 216.20 584.91 217.35Q586.19 218.50 586.19 220.57L586.19 229.64L584.06 229.64L584.06 227.24L584.01 227.24Q583.82 228.46 582.78 229.17Q581.75 229.88 580.05 229.88M580.58 228.06Q582.16 228.06 583.10 227.29Q584.03 226.52 584.03 225.20L584.03 223.35L580.19 223.35Q579.14 223.35 578.48 223.99Q577.82 224.62 577.82 225.68Q577.82 226.78 578.55 227.42Q579.28 228.06 580.58 228.06" fill="white" fill-opacity="0.7"/>
<path d="M593.25 229.64L591.09 229.64L591.09 216.44L593.25 216.44L593.25 218.96L593.30 218.96Q593.46 217.69 594.38 216.94Q595.29 216.20 596.82 216.20Q598.89 216.20 600 217.44Q601.12 218.67 601.12 220.95L601.12 222.08L598.96 222.08L598.96 220.95Q598.96 218.07 596.15 218.07Q594.74 218.07 593.99 218.89Q593.25 219.70 593.25 221.24" fill="white" fill-opacity="0.7"/>
<path d="M609.23 229.88Q607.26 229.88 606.08 228.56Q604.89 227.24 604.89 224.98L604.89 221.12Q604.89 218.84 606.06 217.52Q607.24 216.20 609.23 216.20Q610.72 216.20 611.69 216.94Q612.66 217.69 612.86 218.96L612.88 218.96L612.83 215.96L612.83 212.12L614.99 212.12L614.99 229.64L612.83 229.64L612.83 227.12L612.81 227.12Q612.64 228.42 611.68 229.15Q610.72 229.88 609.23 229.88M609.95 228.01Q611.30 228.01 612.06 227.17Q612.83 226.33 612.83 224.84L612.83 221.24Q612.83 219.75 612.06 218.91Q611.30 218.07 609.95 218.07Q608.58 218.07 607.82 218.78Q607.05 219.49 607.05 221.12L607.05 224.96Q607.05 226.57 607.82 227.29Q608.58 228.01 609.95 228.01" fill="white" fill-opacity="0.7"/>
<path d="M624.40 229.88Q623.51 229.88 622.97 229.35Q622.43 228.82 622.43 227.98Q622.43 227.10 622.97 226.54Q623.51 225.99 624.40 225.99Q625.29 225.99 625.83 226.54Q626.37 227.10 626.37 227.98Q626.37 228.82 625.83 229.35Q625.29 229.88 624.40 229.88" fill="white" fill-opacity="0.7"/>
<path d="M76.11 136.06L66.42 136.06L84.56 65.98L97.14 65.98L115.18 136.06L105.49 136.06L101.07 117.82L80.53 117.82L76.11 136.06M87.54 88.92L82.45 109.95L99.15 109.95L94.16 89.02Q92.72 83.26 91.86 79.23Q90.99 75.20 90.80 73.76Q90.61 75.20 89.74 79.23Q88.88 83.26 87.54 88.92M137.55 136.06L128.05 136.06L128.05 65.98L150.80 65.98Q157.52 65.98 162.42 68.57Q167.31 71.16 170 75.82Q172.69 80.48 172.69 86.91Q172.69 93.24 170 97.90Q167.31 102.56 162.37 105.15Q157.42 107.74 150.80 107.74L137.55 107.74L137.55 136.06M137.55 74.43L137.55 99.29L150.80 99.29Q156.37 99.29 159.63 95.88Q162.90 92.48 162.90 86.91Q162.90 81.24 159.63 77.84Q156.37 74.43 150.80 74.43L137.55 74.43M225.10 136.06L186.90 136.06L186.90 127.42L201.20 127.42L201.20 74.62L186.90 74.62L186.90 65.98L225.10 65.98L225.10 74.62L210.80 74.62L210.80 127.42L225.10 127.42L225.10 136.06M263.98 137.02Q253.62 137.02 247.47 131.60Q241.33 126.17 241.33 116.67L250.83 116.67Q250.83 122.24 254.38 125.40Q257.94 128.57 263.98 128.57Q269.74 128.57 273.15 125.36Q276.56 122.14 276.56 116.76Q276.56 112.73 274.35 109.71Q272.14 106.68 268.11 105.63L257.74 102.84Q250.93 100.92 246.94 95.88Q242.96 90.84 242.96 83.93Q242.96 78.27 245.50 74Q248.05 69.72 252.66 67.37Q257.26 65.02 263.31 65.02Q269.46 65.02 274.11 67.37Q278.77 69.72 281.36 73.95Q283.95 78.17 283.95 83.74L274.54 83.74Q274.54 79.13 271.42 76.25Q268.30 73.37 263.31 73.37Q258.32 73.37 255.30 76.25Q252.27 79.13 252.27 83.74Q252.27 87.48 254.29 90.03Q256.30 92.57 259.95 93.63L270.61 96.51Q277.81 98.43 281.84 103.85Q285.87 109.28 285.87 116.76Q285.87 122.91 283.18 127.47Q280.50 132.03 275.55 134.52Q270.61 137.02 263.98 137.02M342.51 136.06L301.71 136.06L301.71 65.98L342.51 65.98L342.51 74.52L311.12 74.52L311.12 95.36L339.15 95.36L339.15 103.61L311.12 103.61L311.12 127.52L342.51 127.52L342.51 136.06M383.60 136.06L374.10 136.06L374.10 74.62L355.09 74.62L355.09 65.98L402.51 65.98L402.51 74.62L383.60 74.62L383.60 136.06M436.40 137.02Q426.51 137.02 421.18 131.55Q415.86 126.08 415.86 116.67L415.86 65.98L425.36 65.98L425.36 116.67Q425.36 122.24 428.10 125.40Q430.83 128.57 436.40 128.57Q441.87 128.57 444.70 125.40Q447.54 122.24 447.54 116.67L447.54 65.98L457.04 65.98L457.04 116.67Q457.04 126.17 451.71 131.60Q446.38 137.02 436.40 137.02M551.98 137.02Q542.29 137.02 536.58 131.60Q530.86 126.17 530.86 116.67L530.86 85.28Q530.86 75.87 536.58 70.44Q542.29 65.02 551.98 65.02Q561.58 65.02 567.30 70.49Q573.01 75.96 573.01 85.28L563.50 85.28Q563.50 79.61 560.43 76.54Q557.36 73.47 551.98 73.47Q546.51 73.47 543.44 76.54Q540.37 79.61 540.37 85.28L540.37 116.67Q540.37 122.43 543.44 125.50Q546.51 128.57 551.98 128.57Q557.36 128.57 560.43 125.50Q563.50 122.43 563.50 116.67L563.50 107.55L549.87 107.55L549.87 99.10L573.01 99.10L573.01 116.67Q573.01 126.08 567.30 131.55Q561.58 137.02 551.98 137.02M609.20 137.02Q599.60 137.02 594.03 131.45Q588.46 125.88 588.46 115.71L588.46 86.24Q588.46 76.16 594.03 70.59Q599.60 65.02 609.20 65.02Q618.80 65.02 624.37 70.54Q629.94 76.06 629.94 86.24L629.94 115.71Q629.94 125.88 624.37 131.45Q618.80 137.02 609.20 137.02M609.20 128.57Q614.58 128.57 617.50 125.50Q620.43 122.43 620.43 116.67L620.43 85.28Q620.43 79.61 617.55 76.54Q614.67 73.47 609.20 73.47Q603.73 73.47 600.85 76.54Q597.97 79.61 597.97 85.28L597.97 116.67Q597.97 122.43 600.90 125.50Q603.82 128.57 609.20 128.57M673.14 136.06L660.37 136.06L642.42 65.98L652.21 65.98L663.82 113.21Q664.98 117.72 665.79 121.90Q666.61 126.08 666.99 128.28Q667.28 126.08 668.19 121.85Q669.10 117.63 670.16 113.12L681.39 65.98L691.18 65.98L673.14 136.06M782.38 137.02Q772.02 137.02 765.87 131.60Q759.73 126.17 759.73 116.67L769.23 116.67Q769.23 122.24 772.78 125.40Q776.34 128.57 782.38 128.57Q788.14 128.57 791.55 125.36Q794.96 122.14 794.96 116.76Q794.96 112.73 792.75 109.71Q790.54 106.68 786.51 105.63L776.14 102.84Q769.33 100.92 765.34 95.88Q761.36 90.84 761.36 83.93Q761.36 78.27 763.90 74Q766.45 69.72 771.06 67.37Q775.66 65.02 781.71 65.02Q787.86 65.02 792.51 67.37Q797.17 69.72 799.76 73.95Q802.35 78.17 802.35 83.74L792.94 83.74Q792.94 79.13 789.82 76.25Q786.70 73.37 781.71 73.37Q776.72 73.37 773.70 76.25Q770.67 79.13 770.67 83.74Q770.67 87.48 772.69 90.03Q774.70 92.57 778.35 93.63L789.01 96.51Q796.21 98.43 800.24 103.85Q804.27 109.28 804.27 116.76Q804.27 122.91 801.58 127.47Q798.90 132.03 793.95 134.52Q789.01 137.02 782.38 137.02M844.40 136.06L834.90 136.06L834.90 74.62L815.89 74.62L815.89 65.98L863.31 65.98L863.31 74.62L844.40 74.62L844.40 136.06M882.51 136.06L872.82 136.06L890.96 65.98L903.54 65.98L921.58 136.06L911.89 136.06L907.47 117.82L886.93 117.82L882.51 136.06M893.94 88.92L888.85 109.95L905.55 109.95L900.56 89.02Q899.12 83.26 898.26 79.23Q897.39 75.20 897.20 73.76Q897.01 75.20 896.14 79.23Q895.28 83.26 893.94 88.92M959.60 136.06L950.10 136.06L950.10 74.62L931.09 74.62L931.09 65.98L978.51 65.98L978.51 74.62L959.60 74.62L959.60 136.06M1031.50 136.06L993.30 136.06L993.30 127.42L1007.60 127.42L1007.60 74.62L993.30 74.62L993.30 65.98L1031.50 65.98L1031.50 74.62L1017.20 74.62L1017.20 127.42L1031.50 127.42L1031.50 136.06M1070.38 137.02Q1060.02 137.02 1053.87 131.60Q1047.73 126.17 1047.73 116.67L1057.23 116.67Q1057.23 122.24 1060.78 125.40Q1064.34 128.57 1070.38 128.57Q1076.14 128.57 1079.55 125.36Q1082.96 122.14 1082.96 116.76Q1082.96 112.73 1080.75 109.71Q1078.54 106.68 1074.51 105.63L1064.14 102.84Q1057.33 100.92 1053.34 95.88Q1049.36 90.84 1049.36 83.93Q1049.36 78.27 1051.90 74Q1054.45 69.72 1059.06 67.37Q1063.66 65.02 1069.71 65.02Q1075.86 65.02 1080.51 67.37Q1085.17 69.72 1087.76 73.95Q1090.35 78.17 1090.35 83.74L1080.94 83.74Q1080.94 79.13 1077.82 76.25Q1074.70 73.37 1069.71 73.37Q1064.72 73.37 1061.70 76.25Q1058.67 79.13 1058.67 83.74Q1058.67 87.48 1060.69 90.03Q1062.70 92.57 1066.35 93.63L1077.01 96.51Q1084.21 98.43 1088.24 103.85Q1092.27 109.28 1092.27 116.76Q1092.27 122.91 1089.58 127.47Q1086.90 132.03 1081.95 134.52Q1077.01 137.02 1070.38 137.02M1132.40 136.06L1122.90 136.06L1122.90 74.62L1103.89 74.62L1103.89 65.98L1151.31 65.98L1151.31 74.62L1132.40 74.62L1132.40 136.06M1204.30 136.06L1166.10 136.06L1166.10 127.42L1180.40 127.42L1180.40 74.62L1166.10 74.62L1166.10 65.98L1204.30 65.98L1204.30 74.62L1190 74.62L1190 127.42L1204.30 127.42L1204.30 136.06M1243.57 137.02Q1233.87 137.02 1228.16 131.60Q1222.45 126.17 1222.45 116.67L1222.45 85.28Q1222.45 75.87 1228.16 70.44Q1233.87 65.02 1243.57 65.02Q1253.17 65.02 1258.88 70.49Q1264.59 75.96 1264.59 85.28L1255.09 85.28Q1255.09 79.61 1252.02 76.54Q1248.94 73.47 1243.57 73.47Q1238.10 73.47 1235.02 76.54Q1231.95 79.61 1231.95 85.28L1231.95 116.67Q1231.95 122.43 1235.02 125.50Q1238.10 128.57 1243.57 128.57Q1248.94 128.57 1252.02 125.50Q1255.09 122.43 1255.09 116.67L1264.59 116.67Q1264.59 126.08 1258.88 131.55Q1253.17 137.02 1243.57 137.02M1300.78 137.02Q1290.42 137.02 1284.27 131.60Q1278.13 126.17 1278.13 116.67L1287.63 116.67Q1287.63 122.24 1291.18 125.40Q1294.74 128.57 1300.78 128.57Q1306.54 128.57 1309.95 125.36Q1313.36 122.14 1313.36 116.76Q1313.36 112.73 1311.15 109.71Q1308.94 106.68 1304.91 105.63L1294.54 102.84Q1287.73 100.92 1283.74 95.88Q1279.76 90.84 1279.76 83.93Q1279.76 78.27 1282.30 74Q1284.85 69.72 1289.46 67.37Q1294.06 65.02 1300.11 65.02Q1306.26 65.02 1310.91 67.37Q1315.57 69.72 1318.16 73.95Q1320.75 78.17 1320.75 83.74L1311.34 83.74Q1311.34 79.13 1308.22 76.25Q1305.10 73.37 1300.11 73.37Q1295.12 73.37 1292.10 76.25Q1289.07 79.13 1289.07 83.74Q1289.07 87.48 1291.09 90.03Q1293.10 92.57 1296.75 93.63L1307.41 96.51Q1314.61 98.43 1318.64 103.85Q1322.67 109.28 1322.67 116.76Q1322.67 122.91 1319.98 127.47Q1317.30 132.03 1312.35 134.52Q1307.41 137.02 1300.78 137.02M1347.15 136.06L1337.74 136.06L1337.74 65.98L1359.44 65.98Q1365.87 65.98 1370.67 68.52Q1375.47 71.07 1378.16 75.63Q1380.85 80.19 1380.85 86.33Q1380.85 93.44 1377.25 98.52Q1373.65 103.61 1367.70 105.72L1381.81 136.06L1371.34 136.06L1358 106.78L1347.15 106.78L1347.15 136.06M1347.15 74.43L1347.15 98.33L1359.44 98.33Q1364.82 98.33 1367.94 95.07Q1371.06 91.80 1371.06 86.43Q1371.06 80.96 1367.89 77.69Q1364.72 74.43 1359.44 74.43L1347.15 74.43M1400.91 136.06L1391.22 136.06L1409.36 65.98L1421.94 65.98L1439.98 136.06L1430.29 136.06L1425.87 117.82L1405.33 117.82L1400.91 136.06M1412.34 88.92L1407.25 109.95L1423.95 109.95L1418.96 89.02Q1417.52 83.26 1416.66 79.23Q1415.79 75.20 1415.60 73.76Q1415.41 75.20 1414.54 79.23Q1413.68 83.26 1412.34 88.92M1470.32 137.02Q1460.05 137.02 1454.19 131.31Q1448.34 125.60 1448.34 115.71L1457.84 115.71Q1457.84 121.85 1461.15 125.21Q1464.46 128.57 1470.32 128.57Q1476.18 128.57 1479.49 125.21Q1482.80 121.85 1482.80 115.80L1482.80 65.98L1492.30 65.98L1492.30 115.80Q1492.30 125.60 1486.40 131.31Q1480.50 137.02 1470.32 137.02M1516.11 136.06L1506.42 136.06L1524.56 65.98L1537.14 65.98L1555.18 136.06L1545.49 136.06L1541.07 117.82L1520.53 117.82L1516.11 136.06M1527.54 88.92L1522.45 109.95L1539.15 109.95L1534.16 89.02Q1532.72 83.26 1531.86 79.23Q1530.99 75.20 1530.80 73.76Q1530.61 75.20 1529.74 79.23Q1528.88 83.26 1527.54 88.92M1588.78 137.02Q1578.42 137.02 1572.27 131.60Q1566.13 126.17 1566.13 116.67L1575.63 116.67Q1575.63 122.24 1579.18 125.40Q1582.74 128.57 1588.78 128.57Q1594.54 128.57 1597.95 125.36Q1601.36 122.14 1601.36 116.76Q1601.36 112.73 1599.15 109.71Q1596.94 106.68 1592.91 105.63L1582.54 102.84Q1575.73 100.92 1571.74 95.88Q1567.76 90.84 1567.76 83.93Q1567.76 78.27 1570.30 74Q1572.85 69.72 1577.46 67.37Q1582.06 65.02 1588.11 65.02Q1594.26 65.02 1598.91 67.37Q1603.57 69.72 1606.16 73.95Q1608.75 78.17 1608.75 83.74L1599.34 83.74Q1599.34 79.13 1596.22 76.25Q1593.10 73.37 1588.11 73.37Q1583.12 73.37 1580.10 76.25Q1577.07 79.13 1577.07 83.74Q1577.07 87.48 1579.09 90.03Q1581.10 92.57 1584.75 93.63L1595.41 96.51Q1602.61 98.43 1606.64 103.85Q1610.67 109.28 1610.67 116.76Q1610.67 122.91 1607.98 127.47Q1605.30 132.03 1600.35 134.52Q1595.41 137.02 1588.78 137.02M1650.80 136.06L1641.30 136.06L1641.30 74.62L1622.29 74.62L1622.29 65.98L1669.71 65.98L1669.71 74.62L1650.80 74.62L1650.80 136.06M1692.85 136.06L1683.34 136.06L1683.34 65.98L1692.85 65.98L1692.85 95.55L1714.35 95.55L1714.35 65.98L1723.86 65.98L1723.86 136.06L1714.35 136.06L1714.35 104.19L1692.85 104.19L1692.85 136.06M1746.51 136.06L1736.82 136.06L1754.96 65.98L1767.54 65.98L1785.58 136.06L1775.89 136.06L1771.47 117.82L1750.93 117.82L1746.51 136.06M1757.94 88.92L1752.85 109.95L1769.55 109.95L1764.56 89.02Q1763.12 83.26 1762.26 79.23Q1761.39 75.20 1761.20 73.76Q1761.01 75.20 1760.14 79.23Q1759.28 83.26 1757.94 88.92M1807.18 136.06L1798.26 136.06L1798.26 65.98L1810.54 65.98L1831.47 125.12Q1831.18 122.62 1830.94 118.92Q1830.70 115.23 1830.56 111.24Q1830.42 107.26 1830.42 103.71L1830.42 65.98L1839.44 65.98L1839.44 136.06L1827.06 136.06L1806.32 76.92Q1806.51 79.42 1806.70 83.02Q1806.90 86.62 1807.04 90.56Q1807.18 94.49 1807.18 97.95" fill="url(#paint2_linear_0_1)"/>
<g id="Group 1">
<rect id="Rectangle 1" x="26" y="168" width="12" height="184" rx="5" fill="url(#paint3_linear_0_1)" fill-opacity="0.9"/>
</g>
<g id="Group 1_2">
<rect id="Rectangle 2" x="26" y="38" width="12" height="119" rx="5" fill="url(#paint4_linear_0_1)" fill-opacity="0.9"/>
</g>
<ellipse id="Ellipse 1" cx="148.5" cy="573" rx="215.5" ry="214" fill="url(#paint5_linear_0_1)" fill-opacity="0.4"/>
<rect id="Rectangle 3" x="1229" y="48" width="300" height="300" rx="25" fill="#FFFBFB" fill-opacity="0.9"/>
<g id="placeholder-logo"><g transform="translate(1229,48) translate(0.0,60.0) scale(1.2000)"><g fill="#666666">
  <path d="m88.05,27.65c-3.15,4 -3.2,51.2 -0.05,54.35c2.75,2.75 71.7,3.15 74.45,0.45c2.85,-2.9 2.3,-53.85 -0.65,-55.9c-1.95,-1.35 -7.15,-1.55 -36.95,-1.55l-34.7,0l-2.1,2.65zm69.45,3.35c0.65,0 1,8.6 1,23.75l0,23.75l-33,0l-33,0l-0.25,-23c-0.15,-12.6 -0.1,-23.45 0.15,-24.1c0.35,-0.85 8.9,-1.05 32.25,-0.75c17.55,0.2 32.3,0.35 32.85,0.35z"/>
  <path d="m99.15,37.3c-6.85,7.35 4.25,17.35 11.4,10.25c1.35,-1.35 2.45,-3.65 2.45,-5.05c0,-6.45 -9.35,-9.95 -13.85,-5.2z"/>
  <path d="m135,42.5c-0.7,0.85 -5.25,5.15 -10.1,9.6l-8.85,8.1l-3.2,-3.2l-3.15,-3.15l-6.35,6.3c-5.55,5.5 -6.35,6.75 -6.35,10.05l0,3.8l28.5,0l28.5,0l0,-8.6l0,-8.55l-8.15,-7.7c-9.35,-8.85 -9.15,-8.7 -10.85,-6.65zm7.25,15.2c0.95,0.9 1.75,2.9 1.75,4.45c6.35,-5.05 4.75,-7.15 4.9,-11.55c0.95,0 0,0 0,0l-6.65,7.1z"/>
  <path d="m53.65,110.75c0.1,4.8 0.45,8.65 0.75,8.5c0.35,-0.15 1.3,-0.25 2.1,-0.25c1.1,0 1.5,-1.2 1.5,-4.75l0,-4.75l3.25,5c4.9,7.5 6.2,6.75 6.55,-3.75c0.25,-8.15 0.15,-8.75 -1.7,-8.75c-1.65,0 -2.05,0.8 -2.3,4.75l-0.3,4.75l-2.8,-4.75c-4.85,-8.25 -7.25,-6.9 -7.05,4z"/>
  <path d="m91,108.9c0,9.65 0.3,10.1 6.1,10.1c5.8,0 7.15,-2.65 1.65,-3.2l-3.25,-0.3l-0.3,-6.75c-0.25,-5.95 -0.55,-6.75 -2.25,-6.75c-1.75,0 -1.95,0.7 -1.95,6.9z"/>
  <path d="m151,102.45c0,0.25 1,2.15 2.25,4.2c1.2,2.1 2.45,5.8 2.75,8.25c0.65,5.9 4,6.95 4,1.25c0.05,-2.1 1.25,-5.85 2.95,-8.9l2.9,-5.25l-2.5,0c-1.8,0 -2.8,0.85 -3.75,3.1l-1.3,3.05l-1.25,-3.05c-1.1,-2.6 -6.05,-4.8 -6.05,-2.65z"/>
  <path d="m191,107.45c0,9.05 3.4,8.85 4.25,-0.2c0.45,-5 0.35,-5.25 -1.9,-5.25c-2.2,0 -2.35,0.4 -2.35,5.45z"/>
  <path d="m180.8,104.75c-1.3,5.35 0.65,13.6 3.45,14.35c2.3,0.6 2.75,0.4 2.75,-1.2c0,-1.05 -0.45,-1.9 -1,-1.9c-0.55,0 -1,-1.6 -1,-3.5c0,-1.95 0.45,-3.5 1,-3.5c0.55,0 1,-0.7 1,-1.5c0,-0.85 -0.45,-1.5 -1,-1.5c-0.55,0 -1,-0.7 -1,-1.5c0,-2.1 -3.65,-1.9 -4.2,0.25z"/>
  <path d="m71.55,106.55c-2.2,2.25 -2.05,9.7 0.3,11.8c4.5,4.1 10.15,0.75 10.15,-6.1c0,-4.85 -2,-7.25 -6,-7.25c-1.55,0 -3.55,0.7 -4.45,1.55zm6.25,5.8c0.25,3.05 0,3.65 -1.6,3.65c-2.3,0 -3.25,-2.65 -2.05,-5.85c1.25,-3.35 3.3,-2.1 3.65,2.2z"/>
  <path d="m105.75,106.1c-2.5,1.45 -2.45,9.95 0.1,12.25c4.3,3.9 10.15,0.35 10.15,-6.2c0,-6 -5.15,-9.05 -10.25,-6.05zm6.05,6.25c0.25,3.05 0,3.65 -1.6,3.65c-2.3,0 -3.25,-2.65 -2.05,-5.85c1.25,-3.35 3.3,-2.1 3.65,2.2z"/>
  <path d="m119.2,106.2c-3.8,3.8 -0.4,12.55 4.4,11.35c1.9,-0.45 2.45,-0.3 2.15,0.65c-0.25,0.7 -1.55,1.2 -2.85,1.1c-4.05,-0.3 -5.35,0.45 -3.85,2.25c0.85,1.05 2.6,1.45 5.35,1.25l4.1,-0.3l0.3,-8.75l0.3,-8.75l-4.35,0c-2.4,0 -4.9,0.55 -5.55,1.2zm6.6,4.45c0.4,2.85 -2.15,4.85 -3.75,2.95c-0.9,-1.1 -0.9,-2 -0.05,-3.6c1.35,-2.5 3.4,-2.15 3.8,0.65z"/>
  <path d="m133.55,106.55c-2.2,2.25 -2.05,9.7 0.3,11.8c4.5,4.1 10.15,0.75 10.15,-6.1c0,-4.85 -2,-7.25 -6,-7.25c-1.55,0 -3.55,0.7 -4.45,1.55zm6.25,5.8c0.25,3.05 0,3.65 -1.6,3.65c-2.3,0 -3.25,-2.65 -2.05,-5.85c1.25,-3.35 3.3,-2.1 3.65,2.2z"/>
  <path d="m167.65,106.85c-3.9,4.3 -0.75,13.15 4.7,13.15c2.4,0 5.65,-2.75 5.65,-4.85c0,-1.4 -2.65,-1.55 -3.5,-0.15c-0.95,1.55 -4.5,1.15 -4.5,-0.5c0,-1.1 1.1,-1.5 4,-1.5c3.15,0 4,-0.35 4,-1.8c0,-5.3 -6.85,-8.25 -10.35,-4.35z"/>
  <path d="m191,117.5c0,2.15 0.4,2.6 2.25,2.3c1.5,-0.2 2.25,-1 2.25,-2.3c0,-1.3 -0.75,-2.1 -2.25,-2.3c-1.85,-0.3 -2.25,0.15 -2.25,2.3z"/>
 </g></g></g>
</g>
<defs>
<linearGradient id="paint0_linear_0_1" x1="0" y1="198" x2="1584" y2="198" gradientUnits="userSpaceOnUse">
<stop stop-color="#3D052C"/>
<stop offset="1"/>
</linearGradient>
<linearGradient id="paint1_linear_0_1" x1="323" y1="-224" x2="323" y2="352" gradientUnits="userSpaceOnUse">
<stop stop-color="#28F6F2" stop-opacity="0.4"/>
<stop offset="1" stop-color="#17908E" stop-opacity="0.7"/>
</linearGradient>
<linearGradient id="paint2_linear_0_1" x1="148.5" y1="38" x2="148.5" y2="140" gradientUnits="userSpaceOnUse">
<stop stop-color="white"/>
<stop offset="1" stop-color="#999999"/>
</linearGradient>
<linearGradient id="paint3_linear_0_1" x1="38" y1="260" x2="26" y2="260" gradientUnits="userSpaceOnUse">
<stop stop-color="#D9D9D9"/>
<stop offset="1" stop-color="#737373"/>
</linearGradient>
<linearGradient id="paint4_linear_0_1" x1="38" y1="97.5" x2="26" y2="97.5" gradientUnits="userSpaceOnUse">
<stop stop-color="#D9D9D9"/>
<stop offset="1" stop-color="#737373"/>
</linearGradient>
<linearGradient id="paint5_linear_0_1" x1="27.5" y1="434.5" x2="148.5" y2="787" gradientUnits="userSpaceOnUse">
<stop stop-color="#2E21BC"/>
<stop offset="1" stop-color="#150F56"/>
</linearGradient>
<clipPath id="clip0_0_1">
<rect width="1584" height="396" fill="white"/>
</clipPath>
</defs>
</svg>
